# Max2Obj Version 4.0 Mar 10th, 2001
#
# object skybox5 to come ...
#
v  -4320.589355 4320.589355 3926.227539
v  4320.589355 4320.589355 3926.227539
v  4320.589355 -4320.589355 3926.226807
v  -4320.589355 -4320.589355 3926.226807
# 4 vertices

vt  0.999500 0.999501 0.000000
vt  0.000500 0.998701 0.000000
vt  0.000500 0.000499 0.000000
vt  0.999501 0.000500 0.000000
# 4 texture vertices

vn  0.000000 0.000010 -108.014732
vn  0.000000 0.000010 -108.014732
vn  0.000000 0.000010 -108.014732
vn  0.000000 0.000010 -108.014732
# 4 vertex normals

g skybox5
f 1/1/1 2/2/2 4/4/4
f 2/2/2 3/3/3 4/4/4
# 2 faces

g
