# Max2Obj Version 4.0 Mar 10th, 2001
#
# object skybox_12 to come ...
#
v  -4320.589355 4320.589355 3926.227539
v  4320.589355 -4320.589355 3926.226807
v  -4320.589355 -4320.589355 3926.226807
v  4320.589355 -4320.589844 1.885128
v  -4320.589355 -4320.589355 -1707.068604
v  4320.589355 -4320.589844 -1692.508789
v  -4320.589355 4320.589355 4.508914
v  -4320.589355 -4320.589355 4.508482
v  -4320.589355 4320.589355 -1688.212646
# 9 vertices

vt  1.000000 1.000000 0.000000
vt  0.000000 1.000000 0.000000
vt  1.000000 0.501953 0.000000
vt  0.000000 0.501953 0.000000
vt  1.000000 0.501953 0.000000
vt  0.000000 0.501953 0.000000
vt  1.000000 0.000000 0.000000
vt  0.000000 0.000000 0.000000
vt  1.000000 0.498047 0.000000
vt  0.000000 0.498047 0.000000
vt  1.000000 0.498047 0.000000
vt  0.000000 0.498047 0.000000
# 12 texture vertices

vn  108.014732 0.000000 0.000000
vn  0.000003 108.014732 -0.000006
vn  96.611313 48.305656 0.000000
vn  0.000005 108.014732 -0.000004
vn  48.305664 96.611313 0.000000
vn  0.000005 108.014732 0.000000
vn  108.014732 0.000000 0.000000
vn  76.377945 76.377945 -0.000003
vn  108.014732 0.000000 0.000000
# 9 vertex normals

g skybox_12
f 3/1/3 2/2/2 8/3/8
f 2/2/2 4/4/4 8/3/8
f 8/3/8 4/4/4 5/5/5
f 4/4/4 6/6/6 5/5/5
f 1/7/1 3/8/3 7/9/7
f 3/8/3 8/10/8 7/9/7
f 7/9/7 8/10/8 9/11/9
f 8/10/8 5/12/5 9/11/9
# 8 faces

g
