<?xml version="1.0" standalone="no"?>
<!DOCTYPE svg PUBLIC "-//W3C//DTD SVG 1.1//EN" "http://www.w3.org/Graphics/SVG/1.1/DTD/svg11.dtd" >
<svg xmlns="http://www.w3.org/2000/svg" xmlns:xlink="http://www.w3.org/1999/xlink" version="1.1">
<metadata></metadata>
<defs>
<font id="black_tielight" horiz-adv-x="1008" >
<font-face units-per-em="1008" ascent="1008" descent="0" />
<missing-glyph horiz-adv-x="252" />
<glyph unicode=" "  horiz-adv-x="252" />
<glyph unicode="&#x09;" horiz-adv-x="252" />
<glyph unicode="&#xa0;" horiz-adv-x="252" />
<glyph unicode="&#x25fc;" horiz-adv-x="500" d="M0 0z" />
<glyph unicode="&#xf000;" d="M1008 540v-36h-1008v36h1008zM1008 180v-36h-1008v36h1008zM1008 900v-36h-1008v36h1008z" />
<glyph unicode="&#xf001;" horiz-adv-x="1152" d="M36 108h1080v585l-519 -380h-42l-519 380v-585zM576 342l540 396v162h-1080v-162zM1152 936v-864h-1152v864h1152z" />
<glyph unicode="&#xf002;" d="M1008 25l-25 -25l-259 258q-124 -114 -292 -114q-179 0 -305.5 126.5t-126.5 305.5t126.5 305.5t305.5 126.5t305.5 -126.5t126.5 -305.5q0 -168 -114 -292zM432 180q164 0 280 116t116 280t-116 280t-280 116t-280 -116t-116 -280t116 -280t280 -116z" />
<glyph unicode="&#xf003;" d="M750 284l258 -259l-25 -25l-259 258q-124 -114 -292 -114q-179 0 -305.5 126.5t-126.5 305.5t126.5 305.5t305.5 126.5t305.5 -126.5t126.5 -305.5q0 -168 -114 -292zM432 180q164 0 280 116t116 280t-116 280t-280 116t-280 -116t-116 -280t116 -280t280 -116zM450 792 v-198h198v-36h-198v-198h-36v198h-198v36h198v198h36z" />
<glyph unicode="&#xf004;" d="M750 284l258 -259l-25 -25l-259 258q-124 -114 -292 -114q-179 0 -305.5 126.5t-126.5 305.5t126.5 305.5t305.5 126.5t305.5 -126.5t126.5 -305.5q0 -168 -114 -292zM432 180q164 0 280 116t116 280t-116 280t-280 116t-280 -116t-116 -280t116 -280t280 -116zM216 558 v36h432v-36h-432z" />
<glyph unicode="&#xf005;" d="M234 960l-198 -116v-181q23 -160 245 -382t382 -245h181l116 198l-264 182l-116 -132q-80 45 -165.5 130.5t-130.5 165.5l132 116zM245 1008l219 -318l-134 -117q44 -67 110 -133t133 -110l117 134l318 -219l-143 -245h-205q-71 0 -186 76t-218.5 179.5t-179.5 218.5 t-76 186v205z" />
<glyph unicode="&#xf006;" />
<glyph unicode="&#xf007;" d="M972 972h-936v-720h216v-201l201 201h519v720zM1008 1008v-792h-540l-216 -216h-36v216h-216v792h1008z" />
<glyph unicode="&#xf008;" d="M1008 1008v-792h-540l-216 -216h-36v216h-216v792h1008zM252 522q38 0 64 26t26 64t-26 64t-64 26t-64 -26t-26 -64t26 -64t64 -26zM252 666q22 0 38 -16t16 -38t-16 -38t-38 -16t-38 16t-16 38t16 38t38 16zM504 522q38 0 64 26t26 64t-26 64t-64 26t-64 -26t-26 -64 t26 -64t64 -26zM504 666q22 0 38 -16t16 -38t-16 -38t-38 -16t-38 16t-16 38t16 38t38 16zM756 522q38 0 64 26t26 64t-26 64t-64 26t-64 -26t-26 -64t26 -64t64 -26zM756 666q22 0 38 -16t16 -38t-16 -38t-38 -16t-38 16t-16 38t16 38t38 16zM972 972h-936v-720h216v-201 l201 201h519v720z" />
<glyph unicode="&#xf009;" d="M828 972h-792v-648h108h36v-36v-165l191 190l10 11h15h432v648zM864 1008v-720h-468l-216 -216h-36v216h-144v720h864zM900 576v-36h72v-360h-72v-126l-126 126h-306v72h-36v-108h324l144 -144h36v144h72v432h-108z" />
<glyph unicode="&#xf00a;" d="M648 0h-36q0 124 -48.5 237.5t-130.5 195.5t-195.5 130.5t-237.5 48.5v36q176 0 325 -87t236 -236t87 -325zM1008 0h-36q0 197 -77 377t-207.5 310.5t-310.5 207.5t-377 77v36q205 0 391.5 -80t321.5 -215t215 -321.5t80 -391.5zM162 324q-67 0 -114.5 -47.5 t-47.5 -114.5t47.5 -114.5t114.5 -47.5t114.5 47.5t47.5 114.5t-47.5 114.5t-114.5 47.5zM162 288q52 0 89 -37t37 -89t-37 -89t-89 -37t-89 37t-37 89t37 89t89 37z" />
<glyph unicode="&#xf00b;" />
<glyph unicode="&#xf00c;" d="M1008 981l-477 -477l477 -477l-27 -27l-477 477l-477 -477l-27 27l477 477l-477 477l27 27l477 -477l477 477z" />
<glyph unicode="&#xf00d;" d="M756 729l-225 -225l225 -225l-27 -27l-225 225l-225 -225l-27 27l225 225l-225 225l27 27l225 -225l225 225zM504 972q-95 0 -181.5 -37t-149.5 -100t-100 -149.5t-37 -181.5t37 -181.5t100 -149.5t149.5 -100t181.5 -37t181.5 37t149.5 100t100 149.5t37 181.5 t-37 181.5t-100 149.5t-149.5 100t-181.5 37zM504 1008q208 0 356 -148t148 -356t-148 -356t-356 -148t-356 148t-148 356t148 356t356 148z" />
<glyph unicode="&#xf00e;" d="M504 1008q208 0 356 -148t148 -356t-148 -356t-356 -148t-356 148t-148 356t148 356t356 148zM504 36q95 0 181.5 37t149.5 100t100 149.5t37 181.5t-37 181.5t-100 149.5t-149.5 100t-181.5 37t-181.5 -37t-149.5 -100t-100 -149.5t-37 -181.5t37 -181.5t100 -149.5 t149.5 -100t181.5 -37zM504 504v306h36v-342h-270v36h234z" />
<glyph unicode="&#xf010;" d="M527 972h-45l-154 -288h-268l-18 -46l214 -232l-90 -323l39 -39l299 159l299 -159l39 39l-90 323l214 232l-18 46h-268zM459 1008h90l153 -288h270l36 -90l-216 -234l90 -324l-72 -72l-306 162l-306 -162l-72 72l90 324l-216 234l36 90h270z" />
<glyph unicode="&#xf011;" horiz-adv-x="576" d="M459 1008h117v-808l-378 -200l-72 72l90 324l-216 234l36 90h270zM540 221v751h-59l-153 -288h-268l-18 -46l214 -232l-90 -323l39 -39z" />
<glyph unicode="&#xf012;" horiz-adv-x="1152" d="M1125 864l27 -27l-756 -756l-396 396l27 27l369 -369z" />
<glyph unicode="&#xf013;" d="M765 666l27 -27l-378 -378l-216 216l27 27l189 -189zM972 504q0 95 -37 181.5t-100 149.5t-149.5 100t-181.5 37t-181.5 -37t-149.5 -100t-100 -149.5t-37 -181.5t37 -181.5t100 -149.5t149.5 -100t181.5 -37t181.5 37t149.5 100t100 149.5t37 181.5zM1008 504 q0 -208 -148 -356t-356 -148t-356 148t-148 356t148 356t356 148t356 -148t148 -356z" />
<glyph unicode="&#xf014;" d="M801 720l27 -27l-432 -432l-216 216l27 27l189 -189zM36 36h936v936h-936v-936zM1008 1008v-1008h-1008v1008h1008z" />
<glyph unicode="&#xf015;" d="M0 1008h1008v-1008h-1008v1008zM972 360v288h-288v-288h288zM648 360v288h-288v-288h288zM648 324h-288v-288h288v288zM36 648v-288h288v288h-288zM360 684h288v288h-288v-288zM324 972h-288v-288h288v288zM36 324v-288h288v288h-288zM684 36h288v288h-288v-288zM972 684 v288h-288v-288h288z" />
<glyph unicode="&#xf016;" d="M0 1008h1008v-1008h-1008v1008zM36 972v-450h450v450h-450zM486 36v450h-450v-450h450zM972 36v450h-450v-450h450zM522 522h450v450h-450v-450z" />
<glyph unicode="&#xf017;" horiz-adv-x="1152" d="M846 1008q127 0 216.5 -89.5t89.5 -216.5q0 -123 -90 -216q-78 -82 -237 -243.5t-237 -242.5h-24q-78 81 -237 242.5t-237 243.5q-90 93 -90 216q0 127 89.5 216.5t216.5 89.5q85 0 144.5 -36.5t125.5 -111.5q66 75 125.5 111.5t144.5 36.5zM576 39q66 68 222 227 t239 246q79 81 79 190q0 112 -79 191t-191 79q-46 0 -83.5 -11.5t-72.5 -40t-55 -49t-59 -66.5q-39 46 -59 66.5t-55 49t-72.5 40t-83.5 11.5q-112 0 -191 -79t-79 -191q0 -109 79 -190q83 -87 239 -246t222 -227z" />
<glyph unicode="&#xf018;" horiz-adv-x="720" d="M576 39v771q-6 6 -26 28t-26.5 28t-24.5 24t-27 24t-26 18.5t-30.5 17t-31.5 11.5t-37.5 9t-40.5 2q-112 0 -191 -79t-79 -191q0 -109 79 -190q83 -87 239 -246t222 -227zM612 824v-824h-48q-34 35 -209.5 212t-264.5 274q-90 98 -90 216q0 127 89.5 216.5t216.5 89.5 q28 0 53.5 -4.5t44 -9.5t41.5 -19t35 -21t35 -29t30.5 -29.5t33.5 -36t33 -35.5z" />
<glyph unicode="&#xf019;" d="M828 864h180v-864h-1008v864h180v144h36v-144h576v144h36v-144zM972 828h-936v-216h936v216zM36 36h936v540h-936v-540z" />
<glyph unicode="&#xf01a;" d="M180 864h828v-131l-206 -337h-622v-108h612v-36h-648v720h-144v36h180v-144zM972 743v85h-792v-396h602zM684 216q44 0 76 -32t32 -76t-32 -76t-76 -32t-76 32t-32 76t32 76t76 32zM684 36q30 0 51 21t21 51t-21 51t-51 21t-51 -21t-21 -51t21 -51t51 -21zM252 216 q44 0 76 -32t32 -76t-32 -76t-76 -32t-76 32t-32 76t32 76t76 32zM252 36q30 0 51 21t21 51t-21 51t-51 21t-51 -21t-21 -51t21 -51t51 -21z" />
<glyph unicode="&#xf01b;" d="M1008 522v-36h-486v-486h-36v486h-486v36h486v486h36v-486h486z" />
<glyph unicode="&#xf01c;" d="M504 1008q208 0 356 -148t148 -356t-148 -356t-356 -148t-356 148t-148 356t148 356t356 148zM504 36q95 0 181.5 37t149.5 100t100 149.5t37 181.5t-37 181.5t-100 149.5t-149.5 100t-181.5 37t-181.5 -37t-149.5 -100t-100 -149.5t-37 -181.5t37 -181.5t100 -149.5 t149.5 -100t181.5 -37zM522 792v-270h270v-36h-270v-270h-36v270h-270v36h270v270h36z" />
<glyph unicode="&#xf01d;" d="M486 216v270h-270v36h270v270h36v-270h270v-36h-270v-270h-36zM0 1008h1008v-1008h-1008v1008zM972 36v936h-936v-936h936z" />
<glyph unicode="&#xf01e;" d="M216 756l270 126l396 -378l-126 -288l-630 -216l-126 126zM729 245l110 250l-360 344l-234 -109l-204 -594l35 -35l304 304q-20 28 -20 63q0 45 31.5 76.5t76.5 31.5t76.5 -31.5t31.5 -76.5t-31.5 -76.5t-76.5 -31.5q-35 0 -63 20l-304 -304l35 -35zM396 468 q0 -30 21 -51t51 -21t51 21t21 51t-21 51t-51 21t-51 -21t-21 -51zM576 1008l432 -432l-25 -25l-432 432z" />
<glyph unicode="&#xf021;" d="M1008 522v-36h-1008v36h1008z" />
<glyph unicode="&#xf022;" d="M504 972q-95 0 -181.5 -37t-149.5 -100t-100 -149.5t-37 -181.5t37 -181.5t100 -149.5t149.5 -100t181.5 -37t181.5 37t149.5 100t100 149.5t37 181.5t-37 181.5t-100 149.5t-149.5 100t-181.5 37zM504 1008q208 0 356 -148t148 -356t-148 -356t-356 -148t-356 148 t-148 356t148 356t356 148zM792 486v36h-576v-36h576z" />
<glyph unicode="&#xf023;" d="M792 486v36h-576v-36h576zM972 972h-936v-936h936v936zM1008 1008v-1008h-1008v1008h1008z" />
<glyph unicode="&#xf024;" d="M828 1008l180 -180v-72l-684 -684l-324 -72l72 324l684 684h72zM306 105l502 502l-201 201l-502 -502l-58 -259zM972 771v42l-159 159h-42l-139 -139l201 -201z" />
<glyph unicode="&#xf025;" d="M756 432h36v-432h-792v936h576v-36h-540v-864h720v396zM1008 828l-612 -612l-252 -72l72 252l612 612h36l144 -144v-36zM843 972l-103 -103l129 -129l103 103v6l-123 123h-6zM196 196l181 52l467 467l-129 129l-467 -467z" />
<glyph unicode="&#xf026;" d="M1008 387q0 -57 -38 -100q4 -15 4 -34q0 -67 -52 -114q-5 -59 -50 -99t-105 -40h-191q-132 0 -288 64v-64h-288v648h288v-22l143 169q19 21 39.5 61.5t20.5 64.5q0 87 71 87h51q56 0 88.5 -47t32.5 -106q0 -38 -10 -70t-21.5 -51.5t-38.5 -59.5h154q63 0 109.5 -45 t46.5 -108q0 -19 -4 -34q38 -43 38 -100zM252 36v576h-216v-576h216zM938 253q0 23 -9 44q43 35 43 90t-43 90q9 21 9 44q0 48 -35.5 82.5t-84.5 34.5h-222q6 9 28.5 40t30 43.5t21 37.5t18 47.5t4.5 48.5q0 43 -22 80t-63 37q-2 0 -18.5 1t-24.5 0t-20 -3.5t-17.5 -10.5 t-5.5 -20q0 -88 -68 -168l-171 -200v-468q150 -67 288 -67h191q49 0 85.5 34.5t34.5 82.5l-1 4q52 36 52 96z" />
<glyph unicode="&#xf027;" d="M938 755q0 60 -52 96l1 4q2 48 -34.5 82.5t-85.5 34.5h-191q-138 0 -288 -67v-468l171 -200q68 -80 68 -168q0 -12 5.5 -20t17.5 -10.5t20 -3.5t24.5 0t18.5 1q41 0 63 37t22 80q0 26 -4.5 48.5t-18 47.5t-21 37.5t-30 43.5t-28.5 40h222q49 0 84.5 34.5t35.5 82.5 q0 23 -9 44q43 35 43 90t-43 90q9 21 9 44zM252 396v576h-216v-576h216zM1008 621q0 -57 -38 -100q4 -15 4 -34q0 -63 -46.5 -108t-109.5 -45h-154q27 -40 38.5 -59.5t21.5 -51.5t10 -70q0 -59 -32.5 -106t-88.5 -47h-51q-71 0 -71 87q0 24 -20.5 64.5t-39.5 61.5l-143 169 v-22h-288v648h288v-64q156 64 288 64h191q60 0 105 -40t50 -99q52 -47 52 -114q0 -19 -4 -34q38 -43 38 -100z" />
<glyph unicode="&#xf028;" d="M504 972q-57 0 -108 -13v-111q-72 -27 -136 -78l-96 55q-78 -83 -108 -187l96 -55q-12 -79 0 -158l-96 -55q30 -104 108 -187l96 55q64 -51 136 -78v-111q51 -13 108 -13t108 13v111q72 27 136 78l96 -55q78 83 108 187l-96 55q12 79 0 158l96 55q-30 104 -108 187 l-96 -55q-64 51 -136 78v111q-51 13 -108 13zM504 288q-89 0 -152.5 63.5t-63.5 152.5t63.5 152.5t152.5 63.5t152.5 -63.5t63.5 -152.5t-63.5 -152.5t-152.5 -63.5zM504 1008q74 0 144 -21v-114q58 -23 103 -60l99 57q110 -104 144 -249l-98 -57q8 -60 0 -120l98 -57 q-34 -145 -144 -249l-99 57q-45 -37 -103 -60v-114q-70 -21 -144 -21t-144 21v114q-58 23 -103 60l-99 -57q-110 104 -144 249l98 57q-8 60 0 120l-98 57q34 145 144 249l99 -57q45 37 103 60v114q70 21 144 21zM504 324q74 0 127 53t53 127t-53 127t-127 53t-127 -53 t-53 -127t53 -127t127 -53z" />
<glyph unicode="&#xf029;" d="M486 648h36v-432h-36v432zM324 648h36v-432h-36v432zM648 648h36v-432h-36v432zM756 864h252v-36h-1008v36h252l144 144h216zM303 864h402l-108 108h-186zM831 36l60 720h36l-63 -756h-720l-63 756h36l60 -720h654z" />
<glyph unicode="&#xf02a;" horiz-adv-x="864" d="M525 972h-489v-936h792v633zM540 1008l324 -324v-684h-864v1008h540z" />
<glyph unicode="&#xf02b;" d="M522 612v-396h-36v396h36zM540 756q0 -15 -10.5 -25.5t-25.5 -10.5t-25.5 10.5t-10.5 25.5t10.5 25.5t25.5 10.5t25.5 -10.5t10.5 -25.5zM972 504q0 95 -37 181.5t-100 149.5t-149.5 100t-181.5 37t-181.5 -37t-149.5 -100t-100 -149.5t-37 -181.5t37 -181.5t100 -149.5 t149.5 -100t181.5 -37t181.5 37t149.5 100t100 149.5t37 181.5zM1008 504q0 -208 -148 -356t-356 -148t-356 148t-148 356t148 356t356 148t356 -148t148 -356z" />
<glyph unicode="&#xf02c;" d="M453 972h-330l-87 -87v-330l504 -504l417 417zM468 1008l540 -540l-468 -468l-540 540v360l108 108h360zM252 648q44 0 76 32t32 76t-32 76t-76 32t-76 -32t-32 -76t32 -76t76 -32zM252 828q30 0 51 -21t21 -51t-21 -51t-51 -21t-51 21t-21 51t21 51t51 21z" />
<glyph unicode="&#xf02d;" d="M972 972q-66 0 -120.5 -7.5t-102.5 -27.5t-83.5 -39.5t-79.5 -58.5t-73 -69t-81 -86h-234l-162 -162v-126h216l144 -144v-216h126l162 144v252q45 41 66.5 61.5t56 55.5t50.5 57.5t39.5 56.5t34 64t22 69t15.5 82t4 94zM1008 1008q0 -114 -13.5 -192t-52.5 -146.5 t-85.5 -119.5t-136.5 -134v-252l-184 -164h-176v237l-123 123h-237v177l183 183h233q59 64 98.5 102.5t92.5 78.5t102.5 60.5t116 33.5t146.5 13h36zM756 810q-22 0 -38 -16t-16 -38t16 -38t38 -16t38 16t16 38t-16 38t-38 16zM756 846q37 0 63.5 -26.5t26.5 -63.5 t-26.5 -63.5t-63.5 -26.5t-63.5 26.5t-26.5 63.5t26.5 63.5t63.5 26.5z" />
<glyph unicode="&#xf02e;" horiz-adv-x="864" d="M720 648v-36h-360v36h360zM720 792v-36h-360v36h360zM144 36h684v144h-684q-30 0 -51 -21t-21 -51t21 -51t51 -21zM144 216h72v756h-72q-44 0 -76 -32t-32 -76v-720q0 -6 2 -18q6 39 36 64.5t70 25.5zM252 216h576v756h-576v-756zM864 1008v-1008h-720q-59 0 -101.5 42.5 t-42.5 101.5v720q0 59 42.5 101.5t101.5 42.5h720z" />
<glyph unicode="&#xf02f;" horiz-adv-x="1152" d="M738 936h414v-792h-396q-62 0 -85 -11t-59 -61h-72q-36 50 -59 61t-85 11h-396v792h414q115 0 162 -60q47 60 162 60zM558 108v720q0 26 -29 43.5t-59.5 23t-55.5 5.5h-378v-720h360q62 0 92.5 -13t69.5 -59zM1116 180v720h-378q-25 0 -55.5 -5.5t-59.5 -23t-29 -43.5 v-720q39 46 69.5 59t92.5 13h360z" />
<glyph unicode="&#xf030;" d="M144 1008h864v-1008h-864v216h-144v36h144v252h-144v36h144v252h-144v36h144v180zM972 36v936h-792v-936h792zM792 792v-288h-432v288h432zM756 540v216h-360v-216h360z" />
<glyph unicode="&#xf031;" horiz-adv-x="1152" d="M900 792h252v-720h-1152v720h252l144 144h360zM1116 108v648h-231l-144 144h-330l-144 -144h-231v-648h1080zM576 720q104 0 178 -74t74 -178t-74 -178t-178 -74t-178 74t-74 178t74 178t178 74zM576 252q89 0 152.5 63.5t63.5 152.5t-63.5 152.5t-152.5 63.5 t-152.5 -63.5t-63.5 -152.5t63.5 -152.5t152.5 -63.5z" />
<glyph unicode="&#xf032;" horiz-adv-x="1152" d="M432 900h-396v-792h1080v648h-540zM447 936l144 -144h561v-720h-1152v864h447z" />
<glyph unicode="&#xf033;" />
<glyph unicode="&#xf034;" />
<glyph unicode="&#xf035;" />
<glyph unicode="&#xf036;" horiz-adv-x="1152" d="M36 36h468v468h-288v72q0 89 63.5 152.5t152.5 63.5v180q-164 0 -280 -116t-116 -280v-540zM540 36h468v468h-288v72q0 89 63.5 152.5t152.5 63.5v180q-164 0 -280 -116t-116 -280v-540zM1044 540v-540h-1044v576q0 178 127 305t305 127h36v-252h-36q-74 0 -127 -53 t-53 -127v-36h252v36q0 178 127 305t305 127h36v-252h-36q-74 0 -127 -53t-53 -127v-36h288z" />
<glyph unicode="&#xf037;" horiz-adv-x="1152" d="M504 432v540h-468v-468h288v-72q0 -89 -63.5 -152.5t-152.5 -63.5v-180q164 0 280 116t116 280zM1008 432v540h-468v-468h288v-72q0 -89 -63.5 -152.5t-152.5 -63.5v-180q164 0 280 116t116 280zM1044 1008v-576q0 -178 -127 -305t-305 -127h-36v252h36q74 0 127 53 t53 127v36h-252v-36q0 -178 -127 -305t-305 -127h-36v252h36q74 0 127 53t53 127v36h-288v540h1044z" />
<glyph unicode="&#xf038;" horiz-adv-x="1152" d="M576 756q104 0 178 -74t74 -178t-74 -178t-178 -74t-178 74t-74 178t74 178t178 74zM576 288q89 0 152.5 63.5t63.5 152.5t-63.5 152.5t-152.5 63.5t-152.5 -63.5t-63.5 -152.5t63.5 -152.5t152.5 -63.5zM576 864q191 0 346.5 -99t229.5 -261q-74 -162 -229.5 -261 t-346.5 -99t-346.5 99t-229.5 261q74 162 229.5 261t346.5 99zM576 180q172 0 317.5 88t218.5 236q-73 148 -218.5 236t-317.5 88t-317.5 -88t-218.5 -236q73 -148 218.5 -236t317.5 -88z" />
<glyph unicode="&#xf039;" horiz-adv-x="864" d="M36 36h792v504h-792v-504zM180 576h504v162q0 97 -68.5 165.5t-165.5 68.5h-36q-97 0 -165.5 -68.5t-68.5 -165.5v-162zM864 576v-576h-864v576h144v162q0 112 79 191t191 79h36q112 0 191 -79t79 -191v-162h144z" />
<glyph unicode="&#xf03a;" horiz-adv-x="1152" d="M882 1008q112 0 191 -79t79 -191v-234h-36v234q0 97 -68.5 165.5t-165.5 68.5h-36q-97 0 -165.5 -68.5t-68.5 -165.5v-162h252v-576h-864v576h576v162q0 112 79 191t191 79h36zM828 540h-792v-504h792v504z" />
<glyph unicode="&#xf03b;" d="M1008 792v-360h-72v-432h-864v432h-72v360h219q-39 37 -39 90t39 89.5t91 36.5q64 0 98 -43l96 -119l96 119q34 43 98 43q52 0 91 -36.5t39 -89.5t-39 -90h219zM698 972q-46 0 -71 -31l-105 -131v-18h176q37 0 65.5 26t28.5 64t-28.5 64t-65.5 26zM216 882 q0 -38 28.5 -64t65.5 -26h176v18l-105 131q-25 31 -71 31q-37 0 -65.5 -26t-28.5 -64zM36 468h450v288h-450v-288zM108 432v-396h378v396h-378zM900 36v396h-378v-396h378zM972 468v288h-450v-288h450z" />
<glyph unicode="&#xf03c;" d="M504 1008q208 0 356 -148t148 -356t-148 -356t-356 -148t-356 148t-148 356t148 356t356 148zM504 36q95 0 181.5 37t149.5 100t100 149.5t37 181.5t-37 181.5t-100 149.5t-149.5 100t-181.5 37t-181.5 -37t-149.5 -100t-100 -149.5t-37 -181.5t37 -181.5t100 -149.5 t149.5 -100t181.5 -37zM486 432v360h36v-360h-36z" />
<glyph unicode="&#xf03d;" d="M260 224q0 15 -10.5 25.5t-25.5 10.5t-25.5 -10.5t-10.5 -25.5t10.5 -25.5t25.5 -10.5t25.5 10.5t10.5 25.5zM540 108q0 15 -10.5 25.5t-25.5 10.5t-25.5 -10.5t-10.5 -25.5t10.5 -25.5t25.5 -10.5t25.5 10.5t10.5 25.5zM144 504q0 15 -10.5 25.5t-25.5 10.5t-25.5 -10.5 t-10.5 -25.5t10.5 -25.5t25.5 -10.5t25.5 10.5t10.5 25.5zM278 784q0 22 -16 38t-38 16t-38 -16t-16 -38t16 -38t38 -16t38 16t16 38zM820 224q0 15 -10.5 25.5t-25.5 10.5t-25.5 -10.5t-10.5 -25.5t10.5 -25.5t25.5 -10.5t25.5 10.5t10.5 25.5zM936 504q0 15 -10.5 25.5 t-25.5 10.5t-25.5 -10.5t-10.5 -25.5t10.5 -25.5t25.5 -10.5t25.5 10.5t10.5 25.5zM576 900q0 30 -21 51t-51 21t-51 -21t-21 -51t21 -51t51 -21t51 21t21 51zM874 784q0 37 -26.5 63.5t-63.5 26.5t-63.5 -26.5t-26.5 -63.5t26.5 -63.5t63.5 -26.5t63.5 26.5t26.5 63.5z M296 224q0 -30 -21 -51t-51 -21t-51 21t-21 51t21 51t51 21t51 -21t21 -51zM576 108q0 -30 -21 -51t-51 -21t-51 21t-21 51t21 51t51 21t51 -21t21 -51zM180 504q0 -30 -21 -51t-51 -21t-51 21t-21 51t21 51t51 21t51 -21t21 -51zM314 784q0 -37 -26.5 -63.5t-63.5 -26.5 t-63.5 26.5t-26.5 63.5t26.5 63.5t63.5 26.5t63.5 -26.5t26.5 -63.5zM856 224q0 -30 -21 -51t-51 -21t-51 21t-21 51t21 51t51 21t51 -21t21 -51zM972 504q0 -30 -21 -51t-51 -21t-51 21t-21 51t21 51t51 21t51 -21t21 -51zM612 900q0 -44 -32 -76t-76 -32t-76 32t-32 76 t32 76t76 32t76 -32t32 -76zM910 784q0 -52 -37 -89t-89 -37t-89 37t-37 89t37 89t89 37t89 -37t37 -89z" />
<glyph unicode="&#xf03e;" d="M730 612h264q-29 -96 -110 -156t-182 -60q-41 0 -78 10l-406 -406h-97l-121 121v97l406 406q-10 37 -10 78q0 126 90 216t216 90q101 0 182 -60t110 -156h-264l-52 -90zM702 432q75 0 139.5 39t99.5 105h-231l-73 126l73 126h231q-35 66 -99.5 105t-139.5 39 q-112 0 -191 -79t-79 -191q0 -46 15 -88l-411 -411v-67l100 -100h67l411 411q42 -15 88 -15z" />
<glyph unicode="&#xf040;" horiz-adv-x="1152" d="M576 900q-116 0 -201.5 -71t-115.5 -185q-99 -22 -161 -94t-62 -172q0 -111 79.5 -190.5t190.5 -79.5h594q89 0 152.5 63.5t63.5 152.5q0 92 -61 149.5t-155 68.5q2 151 -86 254.5t-238 103.5zM576 936q145 0 254.5 -100.5t105.5 -242.5v-20q92 -14 154 -84.5t62 -164.5 q0 -104 -74 -178t-178 -74h-594q-126 0 -216 90t-90 216q0 104 64.5 187t165.5 109q33 116 129.5 189t216.5 73z" />
<glyph unicode="&#xf041;" horiz-adv-x="1152" d="M306 353l-25 25l259 270l259 -270l-25 -25l-216 223v-504h-36v504zM936 573q93 -14 154.5 -84.5t61.5 -164.5q0 -104 -74 -178t-178 -74h-180v36h180q89 0 152.5 63.5t63.5 152.5q0 93 -61 150.5t-155 67.5v35q-5 136 -96.5 229.5t-227.5 93.5q-116 0 -202 -71t-115 -185 q-99 -22 -161 -94t-62 -172q0 -112 79 -191t191 -79h54v-36h-54q-127 0 -216.5 89.5t-89.5 216.5q0 104 64.5 187t165.5 109q33 116 129 189t217 73q151 0 259 -106.5t101 -253.5v-3z" />
<glyph unicode="&#xf042;" horiz-adv-x="1152" d="M936 573q92 -13 154 -83.5t62 -165.5q0 -104 -74 -178t-178 -74h-36v36h36q89 0 152.5 63.5t63.5 152.5q0 80 -53 141t-132 73l-31 4v31v4q0 133 -95 228t-229 95q-108 0 -195 -66t-116 -170l-6 -20l-20 -5q-90 -22 -146.5 -95.5t-56.5 -165.5q0 -87 50 -156.5t130 -97.5 v-38q-95 29 -155.5 109.5t-60.5 182.5q0 106 65 188t165 108q33 115 128.5 188.5t217.5 73.5q149 0 254.5 -105.5t105.5 -254.5v-3zM774 367l25 -25l-259 -270l-259 270l25 25l216 -223v504h36v-504z" />
<glyph unicode="&#xf043;" d="M504 972q-95 0 -181.5 -37t-149.5 -100t-100 -149.5t-37 -181.5h-36q0 208 148 356t356 148q143 0 264 -75t186 -203v278h36v-342h-342v36h280q-58 123 -173 196.5t-251 73.5zM972 504h36q0 -208 -148 -356t-356 -148q-143 0 -264 75t-186 203v-278h-36v342h342v-36h-280 q58 -123 173 -196.5t251 -73.5q95 0 181.5 37t149.5 100t100 149.5t37 181.5z" />
<glyph unicode="&#xf044;" d="M540 252q0 -15 -10.5 -25.5t-25.5 -10.5t-25.5 10.5t-10.5 25.5t10.5 25.5t25.5 10.5t25.5 -10.5t10.5 -25.5zM702 630q0 -37 -18.5 -67.5t-45 -51.5t-53 -41t-45 -48t-18.5 -62h-36q0 40 18.5 72.5t45 54t53 41.5t45 45.5t18.5 56.5q0 61 -49 93.5t-113 32.5 q-63 0 -106 -35.5t-53 -96.5l-36 7q12 74 65.5 117.5t129.5 43.5q79 0 138.5 -43t59.5 -119zM972 504q0 95 -37 181.5t-100 149.5t-149.5 100t-181.5 37t-181.5 -37t-149.5 -100t-100 -149.5t-37 -181.5t37 -181.5t100 -149.5t149.5 -100t181.5 -37t181.5 37t149.5 100 t100 149.5t37 181.5zM1008 504q0 -208 -148 -356t-356 -148t-356 148t-148 356t148 356t356 148t356 -148t148 -356z" />
<glyph unicode="&#xf045;" d="M828 360q74 0 127 -53t53 -127t-53 -127t-127 -53t-127 53t-53 127q0 34 12 64l-328 164q-25 -38 -65 -61t-87 -23q-74 0 -127 53t-53 127t53 127t127 53q47 0 87 -23t65 -61l328 164q-12 30 -12 64q0 74 53 127t127 53t127 -53t53 -127t-53 -127t-127 -53q-47 0 -87 23 t-65 61l-328 -164q12 -30 12 -64t-12 -64l328 -164q25 38 65 61t87 23zM828 972q-59 0 -101.5 -42.5t-42.5 -101.5t42.5 -101.5t101.5 -42.5t101.5 42.5t42.5 101.5t-42.5 101.5t-101.5 42.5zM180 360q59 0 101.5 42.5t42.5 101.5t-42.5 101.5t-101.5 42.5t-101.5 -42.5 t-42.5 -101.5t42.5 -101.5t101.5 -42.5zM828 36q59 0 101.5 42.5t42.5 101.5t-42.5 101.5t-101.5 42.5t-101.5 -42.5t-42.5 -101.5t42.5 -101.5t101.5 -42.5z" />
<glyph unicode="&#xf046;" horiz-adv-x="1152" d="M792 864h360v-864h-1152v864h360v90l54 54h324l54 -54v-90zM396 939v-75h360v75l-33 33h-294zM1116 36v432h-432v-144h-216v144h-432v-432h1080zM504 468v-108h144v108h-144zM36 504h1080v324h-1080v-324z" />
<glyph unicode="&#xf047;" d="M504 1008q208 0 356 -148t148 -356t-148 -356t-356 -148t-356 148t-148 356t148 356t356 148zM504 36q95 0 181.5 37t149.5 100t100 149.5t37 181.5t-37 181.5t-100 149.5t-149.5 100t-181.5 37t-181.5 -37t-149.5 -100t-100 -149.5t-37 -181.5t37 -181.5t100 -149.5 t149.5 -100t181.5 -37zM522 521q76 -5 128 -46t52 -97t-52 -97t-128 -46v-91h-36v91q-149 6 -179 113l34 10q24 -81 145 -87v216q-76 5 -128 46t-52 97t52 97t128 46v91h36v-91q149 -6 179 -113l-34 -10q-24 81 -145 87v-216zM342 630q0 -41 41.5 -71.5t102.5 -35.5v214 q-61 -5 -102.5 -35.5t-41.5 -71.5zM522 271q61 5 102.5 35.5t41.5 71.5t-41.5 71.5t-102.5 35.5v-214z" />
<glyph unicode="&#xf048;" horiz-adv-x="1152" d="M371 48l164 74l-125 274h-197zM878 180h94v792h-94l-288 -252h-503l-51 -51v-186l51 -51h503zM1098 576q0 30 -21 51t-51 21q-9 0 -18 -3v-138q9 -3 18 -3q30 0 51 21t21 51zM1134 576q0 -45 -31.5 -76.5t-76.5 -31.5q-6 0 -18 2v-326h-144l-288 252h-126l133 -292 l-230 -104l-180 396h-101l-72 72v216l72 72h504l288 252h144v-326q12 2 18 2q45 0 76.5 -31.5t31.5 -76.5z" />
<glyph unicode="&#xf049;" d="M324 648h-36v360h720v-1008h-720v360h36v-324h648v936h-648v-324zM531 792l288 -288l-288 -288l-27 27l243 243h-747v36h747l-243 243z" />
<glyph unicode="&#xf04a;" horiz-adv-x="1152" d="M612 360h36v-360h-648v1008h648v-360h-36v324h-576v-936h576v324zM819 792l288 -288l-288 -288l-27 27l243 243h-747v36h747l-243 243z" />
<glyph unicode="&#xf04b;" horiz-adv-x="1152" d="M36 108h144v180h-144v-180zM36 324h144v162h-144v-162zM36 522h144v162h-144v-162zM36 720h144v180h-144v-180zM216 108h720v792h-720v-792zM972 108h144v180h-144v-180zM972 324h144v162h-144v-162zM972 522h144v162h-144v-162zM972 720h144v180h-144v-180zM1152 936 v-864h-1152v864h1152z" />
<glyph unicode="&#xf04c;" d="M216 307v521h-180v-324q0 -58 48 -109.5t132 -87.5zM756 293v679h-504v-679q115 -41 252 -41t252 41zM972 504v324h-180v-521q84 36 132 87.5t48 109.5zM1008 864v-360q0 -77 -65 -142t-176.5 -104t-244.5 -42v-180h270v-36h-576v36h270v180q-133 3 -244.5 42t-176.5 104 t-65 142v360h216v144h576v-144h216z" />
<glyph unicode="&#xf04d;" horiz-adv-x="1152" d="M54 504l261 -261l-27 -27l-288 288l288 288l27 -27zM666 1008l36 -9l-216 -999l-36 9zM864 792l288 -288l-288 -288l-27 27l261 261l-261 261z" />
<glyph unicode="&#xf04e;" horiz-adv-x="720" d="M432 108h36v72h-216v-72h36q0 -30 21 -51t51 -21t51 21t21 51zM648 684q0 119 -84.5 203.5t-203.5 84.5t-203.5 -84.5t-84.5 -203.5q0 -88 49 -161t131 -106v-93h216v93q82 33 131 106t49 161zM504 216v-144h-42q-11 -32 -39.5 -52t-62.5 -20t-62.5 20t-39.5 52h-42v144 h288zM684 684q0 -92 -48.5 -170.5t-131.5 -119.5v-106h-288v106q-83 41 -131.5 119.5t-48.5 170.5q0 134 95 229t229 95t229 -95t95 -229z" />
<glyph unicode="&#xf050;" d="M0 1008h1008v-576h-216v-252l-180 -180h-396v432h-216v576zM756 198v486h-504v-648h342zM972 468v504h-936v-504h180v252h576v-252h180zM180 864q15 0 25.5 -10.5t10.5 -25.5t-10.5 -25.5t-25.5 -10.5t-25.5 10.5t-10.5 25.5t10.5 25.5t25.5 10.5z" />
<glyph unicode="&#xf051;" d="M1008 0h-1008v576h216v432h396l180 -180v-252h216v-576zM756 324v486l-162 162h-342v-648h504zM972 36v504h-180v-252h-576v252h-180v-504h936zM180 144q-15 0 -25.5 10.5t-10.5 25.5t10.5 25.5t25.5 10.5t25.5 -10.5t10.5 -25.5t-10.5 -25.5t-25.5 -10.5z" />
<glyph unicode="&#xf052;" horiz-adv-x="1152" d="M1116 108v792h-54l-306 -306v306h-720v-792h720v306l306 -306h54zM1152 936v-864h-108l-252 252v-252h-792v864h792v-252l252 252h108z" />
<glyph unicode="&#xf053;" d="M252 216v-216h-36v216h36zM684 612v-612h-36v612h36zM900 1008v-1008h-36v1008h36zM468 360v-360h-36v360h36zM36 144v-144h-36v144h36z" />
<glyph unicode="&#xf054;" d="M900 288h108v-288h-288v288h144v180h-342v-180h126v-288h-288v288h126v180h-342v-180h144v-288h-288v288h108v216h378v216h-126v288h288v-288h-126v-216h378v-216zM396 756h216v216h-216v-216zM252 252h-216v-216h216v216zM612 252h-216v-216h216v216zM972 36v216h-216 v-216h216z" />
<glyph unicode="&#xf055;" d="M900 288h36v-288h-936v288h36v-252h864v252zM180 720l288 288l288 -288l-27 -27l-243 243v-792h-36v792l-243 -243z" />
<glyph unicode="&#xf056;" d="M900 288h36v-288h-936v288h36v-252h864v252zM756 432l-288 -288l-288 288l27 27l243 -243v792h36v-792l243 243z" />
<glyph unicode="&#xf057;" d="M737 512l271 -271v-241h-288v144h-144v144h-37q-75 -36 -161 -36q-156 0 -267 111t-111 267t111 267t267 111t267 -111t111 -267q0 -62 -19 -118zM972 36v191l-276 276q24 60 24 127q0 141 -100.5 241.5t-241.5 100.5t-241.5 -100.5t-100.5 -241.5t100.5 -241.5 t241.5 -100.5q83 0 152 36h82v-144h144v-144h216zM288 792q-30 0 -51 -21t-21 -51t21 -51t51 -21t51 21t21 51t-21 51t-51 21zM288 828q44 0 76 -32t32 -76t-32 -76t-76 -32t-76 32t-32 76t32 76t76 32z" />
<glyph unicode="&#xf058;" horiz-adv-x="1152" d="M864 864h288v-450q0 -48 -28.5 -91.5t-75 -73.5t-92 -50.5t-92.5 -33.5v-165h-864v1008h864v-144zM828 36v936h-792v-936h792zM1116 414v414h-252v-626q39 12 78 29.5t80.5 43.5t67.5 62.5t26 76.5z" />
<glyph unicode="&#xf059;" horiz-adv-x="864" d="M828 972h-792v-936h28l368 184l368 -184h28v936zM864 1008v-1008h-72l-360 180l-360 -180h-72v1008h864z" />
<glyph unicode="&#xf05a;" d="M540 249l432 77v565l-468 -108v185l-468 -98v-564l504 126v-183zM1008 936v-640l-504 -90v180l-468 -117v-269h-36v1008h36v-101l504 101v-180z" />
<glyph unicode="&#xf05b;" d="M900 360h36v-360h-936v936h360v-36h-324v-864h864v324zM504 1008h504v-504h-36v441l-657 -657l-27 27l657 657h-441v36z" />
<glyph unicode="&#xf05c;" d="M504 1008q208 0 356 -148t148 -356t-148 -356t-356 -148t-356 148t-148 356t148 356t356 148zM504 36q95 0 181.5 37t149.5 100t100 149.5t37 181.5t-37 181.5t-100 149.5t-149.5 100t-181.5 37t-181.5 -37t-149.5 -100t-100 -149.5t-37 -181.5t37 -181.5t100 -149.5 t149.5 -100t181.5 -37zM360 630q-22 0 -38 16t-16 38t16 38t38 16t38 -16t16 -38t-16 -38t-38 -16zM648 630q-22 0 -38 16t-16 38t16 38t38 16t38 -16t16 -38t-16 -38t-38 -16zM504 216q119 0 203.5 84.5t84.5 203.5h36q0 -134 -95 -229t-229 -95t-229 95t-95 229h36 q0 -119 84.5 -203.5t203.5 -84.5z" />
<glyph unicode="&#xf05d;" d="M504 1008q208 0 356 -148t148 -356t-148 -356t-356 -148t-356 148t-148 356t148 356t356 148zM504 36q95 0 181.5 37t149.5 100t100 149.5t37 181.5t-37 181.5t-100 149.5t-149.5 100t-181.5 37t-181.5 -37t-149.5 -100t-100 -149.5t-37 -181.5t37 -181.5t100 -149.5 t149.5 -100t181.5 -37zM360 630q-22 0 -38 16t-16 38t16 38t38 16t38 -16t16 -38t-16 -38t-38 -16zM648 630q-22 0 -38 16t-16 38t16 38t38 16t38 -16t16 -38t-16 -38t-38 -16zM504 504q94 0 171.5 -52t112.5 -139l-34 -14q-31 77 -99 123t-151 46t-151 -46t-99 -123l-34 14 q35 87 112.5 139t171.5 52z" />
<glyph unicode="&#xf05e;" d="M504 1008q208 0 356 -148t148 -356t-148 -356t-356 -148t-356 148t-148 356t148 356t356 148zM504 36q95 0 181.5 37t149.5 100t100 149.5t37 181.5t-37 181.5t-100 149.5t-149.5 100t-181.5 37t-181.5 -37t-149.5 -100t-100 -149.5t-37 -181.5t37 -181.5t100 -149.5 t149.5 -100t181.5 -37zM360 630q-22 0 -38 16t-16 38t16 38t38 16t38 -16t16 -38t-16 -38t-38 -16zM648 630q-22 0 -38 16t-16 38t16 38t38 16t38 -16t16 -38t-16 -38t-38 -16zM216 396v36h576v-36h-576z" />
<glyph unicode="&#xf060;" d="M773 668l121 133l-3 9h-151l-90 162h-2h-4l-88 -162h-151l-3 -9l121 -132l-51 -185l8 -8l168 89l168 -89l8 8zM915 846l21 -53l-123 -135l51 -185l-41 -41l-175 93l-175 -93l-8 9l-416 -435l-26 24l416 436l-7 7l51 186l-123 134l21 53h154l87 162h52l87 -162h154z" />
<glyph unicode="&#xf061;" horiz-adv-x="864" d="M323 36l437 648h-392l72 288h-300l-63 -504h295l-126 -432h77zM414 720h414l-486 -720h-144l126 432h-288l72 576h378z" />
<glyph unicode="&#xf062;" horiz-adv-x="1152" d="M612 180q0 -15 -10.5 -25.5t-25.5 -10.5t-25.5 10.5t-10.5 25.5t10.5 25.5t25.5 10.5t25.5 -10.5t10.5 -25.5zM558 720h36l-4 -396h-27zM1026 36l84 111l-464 825h-139l-464 -825l83 -111h900zM666 1008l486 -864l-108 -144h-936l-108 144l486 864h180z" />
<glyph unicode="&#xf063;" d="M540 252q0 -15 -10.5 -25.5t-25.5 -10.5t-25.5 10.5t-10.5 25.5t10.5 25.5t25.5 10.5t25.5 -10.5t10.5 -25.5zM486 792h36l-4 -396h-27zM972 504q0 95 -37 181.5t-100 149.5t-149.5 100t-181.5 37t-181.5 -37t-149.5 -100t-100 -149.5t-37 -181.5t37 -181.5t100 -149.5 t149.5 -100t181.5 -37t181.5 37t149.5 100t100 149.5t37 181.5zM1008 504q0 -208 -148 -356t-356 -148t-356 148t-148 356t148 356t356 148t356 -148t148 -356z" />
<glyph unicode="&#xf064;" d="M900 36l63 108l-351 567v261h-216v-261l-351 -567l63 -108h792zM648 720l360 -576l-90 -144h-828l-90 144l360 576v288h288v-288z" />
<glyph unicode="&#xf065;" d="M396 864l612 144v-792q0 -60 -63.5 -102t-152.5 -42t-152.5 42t-63.5 102t63.5 102t152.5 42q114 0 180 -64v447l-540 -127v-472q0 -60 -63.5 -102t-152.5 -42t-152.5 42t-63.5 102t63.5 102t152.5 42q114 0 180 -64v640zM216 36q74 0 127 32t53 76t-53 76t-127 32 t-127 -32t-53 -76t53 -76t127 -32zM792 108q74 0 127 32t53 76t-53 76t-127 32t-127 -32t-53 -76t53 -76t127 -32zM972 784v175l-540 -127v-176z" />
<glyph unicode="&#xf066;" d="M846 537l111 111l-309 309l-111 -111l54 -54l-207 -207q-33 9 -69 9q-104 0 -184 -69l394 -394q69 78 69 184q0 36 -9 69l207 207zM648 1008l360 -360l-162 -162l-54 54l-167 -167q5 -32 5 -58q0 -130 -105 -235l-209 209q-72 -80 -168.5 -172.5t-147.5 -116.5 q41 87 289 316l-209 209q105 105 235 105q26 0 58 -5l167 167l-54 54z" />
<glyph unicode="&#xf067;" horiz-adv-x="864" d="M432 41q61 33 122.5 75t126.5 98.5t106 123.5t41 130v366l-698 -566q110 -124 302 -227zM107 296l721 585v91h-792v-504q0 -80 71 -172zM864 1008v-540q0 -57 -31 -117.5t-77.5 -111t-107 -99t-114 -82t-102.5 -58.5q-49 25 -102.5 58.5t-114 82t-107 99t-77.5 111 t-31 117.5v540h864z" />
<glyph unicode="&#xf068;" horiz-adv-x="864" d="M432 891l-386 -290l30 -61h712l30 61zM432 936l432 -324l-54 -108h-756l-54 108zM788 396h-712l-30 -61l386 -290l386 290zM810 432l54 -108l-432 -324l-432 324l54 108h756z" />
<glyph unicode="&#xf069;" d="M1008 180v-180h-36v180q0 142 -111 242t-267 100h-513l423 -423l-27 -27l-468 468l468 468l27 -27l-423 -423h513q171 0 292.5 -111t121.5 -267z" />
<glyph unicode="&#xf06a;" d="M9 0v180q0 156 121.5 267t292.5 111h513l-423 423l27 27l468 -468l-468 -468l-27 27l423 423h-513q-156 0 -267 -100t-111 -242v-180h-36z" />
<glyph unicode="&#xf06b;" horiz-adv-x="1152" d="M738 558q171 0 292.5 -111t121.5 -267v-180h-36v180q0 142 -111 242t-267 100h-441l423 -423l-27 -27l-468 468l468 468l27 -27l-423 -423h441zM504 981l-441 -441l441 -441l-27 -27l-468 468l468 468z" />
<glyph unicode="&#xf06c;" horiz-adv-x="1152" d="M1089 540l-441 441l27 27l468 -468l-468 -468l-27 27zM414 558h441l-423 423l27 27l468 -468l-468 -468l-27 27l423 423h-441q-156 0 -267 -100t-111 -242v-180h-36v180q0 156 121.5 267t292.5 111z" />
<glyph unicode="&#xf06d;" d="M504 36q44 0 76 32t32 76h-216q0 -44 32 -76t76 -32zM36 180h936v144h-36q-44 0 -76 32t-32 76v207q0 134 -90.5 232.5t-221.5 100.5h-12q-133 2 -228.5 -94t-95.5 -230v-216q0 -44 -32 -76t-76 -32h-36v-144zM504 1008q150 0 255 -109t105 -260v-207q0 -30 21 -51 t51 -21h72v-216h-360q0 -59 -42.5 -101.5t-101.5 -42.5t-101.5 42.5t-42.5 101.5h-360v216q5 0 22 -0.5t24.5 0t23 1.5t23.5 3.5t19.5 8t17 13t10 19.5t4.5 27v216q0 149 105.5 254.5t254.5 105.5z" />
<glyph unicode="&#xf06e;" horiz-adv-x="1152" d="M576 36q44 0 76 32t32 76h-216q0 -44 32 -76t76 -32zM923 736q13 -45 13 -97v-207q0 -15 4.5 -27t10 -19.5t17 -13t19.5 -8t23.5 -3.5t23 -1.5t24.5 0t22 0.5v-216h-360q0 -59 -42.5 -101.5t-101.5 -42.5t-101.5 42.5t-42.5 101.5h-188l41 36h759v144h-36q-44 0 -76 32 t-32 76v207q0 40 -8 71zM108 180h68l691 603q-40 86 -118.5 137.5t-172.5 51.5q-134 0 -229 -95t-95 -229v-216q0 -44 -32 -76t-76 -32h-36v-144zM1125 1008l27 -27l-1125 -981l-27 27l134 117h-62v216q5 0 22 -0.5t24.5 0t23 1.5t23.5 3.5t19.5 8t17 13t10 19.5t4.5 27v216 q0 149 105.5 254.5t254.5 105.5q102 0 187.5 -54t132.5 -146z" />
<glyph unicode="&#xf070;" d="M504 1008q208 0 356 -148t148 -356t-148 -356t-356 -148t-356 148t-148 356t148 356t356 148zM36 504q0 -183 125 -318l661 661q-135 125 -318 125q-95 0 -181.5 -37t-149.5 -100t-100 -149.5t-37 -181.5zM504 36q95 0 181.5 37t149.5 100t100 149.5t37 181.5 q0 183 -125 318l-661 -661q135 -125 318 -125z" />
<glyph unicode="&#xf071;" horiz-adv-x="864" d="M432 1008q67 0 136 -7t138.5 -22t113.5 -45t44 -70v-720q0 -40 -44 -70t-113.5 -45t-138.5 -22t-136 -7t-136 7t-138.5 22t-113.5 45t-44 70v720q0 40 44 70t113.5 45t138.5 22t136 7zM36 864v-144q0 -45 116 -76.5t280 -31.5t280 31.5t116 76.5v144q0 45 -116 76.5 t-280 31.5t-280 -31.5t-116 -76.5zM36 656v-224q0 -45 116 -76.5t280 -31.5t280 31.5t116 76.5v224q-54 -42 -167.5 -61t-228.5 -19t-228.5 19t-167.5 61zM828 144v224q-54 -42 -167.5 -61t-228.5 -19t-228.5 19t-167.5 61v-224q0 -45 116 -76.5t280 -31.5t280 31.5 t116 76.5z" />
<glyph unicode="&#xf072;" horiz-adv-x="1152" d="M936 936l216 -432v-432h-1152v432l216 432h720zM238 900l-198 -396h1072l-198 396h-676zM1116 108v360h-1080v-360h1080zM972 198q-22 0 -38 16t-16 38t16 38t38 16t38 -16t16 -38t-16 -38t-38 -16z" />
<glyph unicode="&#xf073;" horiz-adv-x="1152" d="M927 684l216 -216l-216 -216l-27 27l171 171h-450l-360 -360h-261v36h243l342 342l-342 342h-243v36h261l360 -360h450l-171 171z" />
<glyph unicode="&#xf074;" horiz-adv-x="1152" d="M936 333l27 27l180 -180l-180 -180l-27 27l135 135h-468l-288 288h-315v36h315l288 288h468l-135 135l27 27l180 -180l-180 -180l-27 27l135 135h-450l-270 -270l270 -270h450z" />
<glyph unicode="&#xf075;" horiz-adv-x="1152" d="M576 252q-30 0 -51 -21t-21 -51t21 -51t51 -21t51 21t21 51t-21 51t-51 21zM684 180q0 -44 -32 -76t-76 -32t-76 32t-32 76t32 76t76 32t76 -32t32 -76zM856 370l-25 -27q-46 59 -113.5 92t-141.5 33t-141.5 -33t-113.5 -92l-25 27q51 63 125 98.5t155 35.5t155 -35.5 t125 -98.5zM1005 528l-25 -27q-76 87 -182 135t-222 48t-222 -48t-182 -135l-25 27q81 91 194 141.5t235 50.5t235 -50.5t194 -141.5zM1152 684l-23 -25q-106 115 -251.5 178t-301.5 63t-301.5 -63t-251.5 -178l-23 25q112 119 263 185.5t313 66.5t313 -66.5t263 -185.5z " />
<glyph unicode="&#xf076;" horiz-adv-x="1152" d="M396 104l453 572l-453 -334v-238zM979 190l126 754l-1006 -503l267 -76l678 499l-447 -565zM0 432l1152 576l-144 -864l-435 124l-213 -268v329z" />
<glyph unicode="&#xf077;" horiz-adv-x="1152" d="M36 108h1080v360h-281l-108 -108h-302l-108 108h-281v-360zM821 504h291l-198 396h-676l-198 -396h291l108 -108h274zM1152 504v-432h-1152v432l216 432h720z" />
<glyph unicode="&#xf078;" horiz-adv-x="864" d="M428 959q22 -51 22 -90q0 -35 -20 -66t-50 -52t-65 -46.5t-65 -50t-50 -63t-20 -84.5q0 -109 72.5 -189t183.5 -125q-22 51 -22 90q0 35 20 66t50 52t65 46.5t65 50t50 63t20 84.5q0 109 -72.5 189t-183.5 125zM488 171l-19 -27q-64 19 -121 52t-103.5 77.5t-73.5 105 t-27 128.5q0 60 28 108t67.5 78.5t79 57t67.5 56t28 62.5q0 49 -38 112l19 27q136 -41 230.5 -137t94.5 -226q0 -60 -28 -108t-67.5 -78.5t-79 -56.5t-67.5 -56t-28 -63q0 -49 38 -112zM864 36v-36h-864v36h864z" />
<glyph unicode="&#xf079;" horiz-adv-x="864" d="M36 966v-924l788 462zM36 1008l828 -486v-36l-828 -486l-36 18v972z" />
<glyph unicode="&#xf07a;" horiz-adv-x="432" d="M432 1008v-1008h-36v1008h36zM36 1008v-1008h-36v1008h36z" />
<glyph unicode="&#xf07b;" d="M504 972q-95 0 -181.5 -37t-149.5 -100t-100 -149.5t-37 -181.5t37 -181.5t100 -149.5t149.5 -100t181.5 -37t181.5 37t149.5 100t100 149.5t37 181.5t-37 181.5t-100 149.5t-149.5 100t-181.5 37zM504 1008q208 0 356 -148t148 -356t-148 -356t-356 -148t-356 148 t-148 356t148 356t356 148zM360 714v-420l356 210zM360 756l396 -234v-36l-396 -234l-36 18v468z" />
<glyph unicode="&#xf07c;" horiz-adv-x="720" d="M684 1008h36v-1008h-36v486l-648 -486l-36 18v972l36 18l648 -486v486zM36 45l612 459l-612 459v-918z" />
<glyph unicode="&#xf07d;" horiz-adv-x="720" d="M72 504l612 -459v918zM0 1008h36v-486l648 486l36 -18v-972l-36 -18l-648 486v-486h-36v1008z" />
<glyph unicode="&#xf07e;" horiz-adv-x="1152" d="M675 1008l234 -234l-234 -234l-27 27l189 189h-549q-104 0 -178 -74t-74 -178q0 -73 40 -135.5t106 -93.5l-26 -27q-72 37 -114 106t-42 150q0 119 84.5 203.5t203.5 84.5h549l-189 189zM1152 504q0 -119 -84.5 -203.5t-203.5 -84.5h-549l189 -189l-27 -27l-234 234 l234 234l27 -27l-189 -189h549q104 0 178 74t74 178q0 73 -40 135.5t-106 93.5l26 27q72 -37 114 -106t42 -150z" />
<glyph unicode="&#xf080;" horiz-adv-x="1152" d="M612 1008l540 -486v-36l-540 -486l-36 18v468l-540 -486l-36 18v972l36 18l540 -486v468zM540 504l-504 456v-912zM1116 504l-504 456v-912z" />
<glyph unicode="&#xf081;" horiz-adv-x="1152" d="M540 960l-504 -456l504 -456v912zM1116 960l-504 -456l504 -456v912zM0 522l540 486l36 -18v-468l540 486l36 -18v-972l-36 -18l-540 486v-468l-36 -18l-540 486v36z" />
<glyph unicode="&#xf082;" horiz-adv-x="576" d="M468 900h-125l-144 -216h-163v-360h163l144 -216h125v792zM504 936v-864h-180l-144 216h-180v432h180l144 216h180z" />
<glyph unicode="&#xf083;" d="M1008 693l-189 -189l189 -189l-27 -27l-189 189l-189 -189l-27 27l189 189l-189 189l27 27l189 -189l189 189zM468 900h-125l-144 -216h-163v-360h163l144 -216h125v792zM504 936v-864h-180l-144 216h-180v432h180l144 216h180z" />
<glyph unicode="&#xf084;" horiz-adv-x="1152" d="M949 1004q97 -100 150 -230t53 -270q0 -139 -52.5 -269t-149.5 -231l-26 26q92 95 142 218t50 256t-50 256.5t-142 218.5zM797 852q67 -71 103 -161t36 -187t-36 -187t-103 -160l-25 25q61 66 94.5 149.5t33.5 172.5t-33.5 173t-95.5 149zM644 699q76 -82 76 -195 q0 -112 -75 -195l-26 26q65 71 65 169q0 96 -65 169zM468 900h-125l-144 -216h-163v-360h163l144 -216h125v792zM504 936v-864h-180l-144 216h-180v432h180l144 216h180z" />
<glyph unicode="&#xf085;" horiz-adv-x="720" d="M644 699q76 -82 76 -195q0 -112 -75 -195l-26 26q65 71 65 169q0 96 -65 169zM468 900h-125l-144 -216h-163v-360h163l144 -216h125v792zM504 936v-864h-180l-144 216h-180v432h180l144 216h180z" />
<glyph unicode="&#xf086;" horiz-adv-x="1152" d="M360 108v-36h-360v360h36v-324h324zM360 936v-36h-324v-324h-36v360h360zM1152 432v-360h-378v36h342v324h36zM1152 936v-360h-36v324h-324v36h360z" />
<glyph unicode="&#xf087;" horiz-adv-x="1152" d="M360 432v-360h-36v324h-324v36h360zM360 936v-360h-360v36h324v324h36zM1152 612v-36h-360v360h36v-324h324zM828 396v-324h-36v360h360v-36h-324z" />
<glyph unicode="&#xf088;" horiz-adv-x="1152" d="M1116 900h-1080v-792h1080v792zM1152 936v-864h-1152v864h1152zM510 404l30 -20q-30 -44 -78 -70t-102 -26q-89 0 -152.5 63.5t-63.5 152.5t63.5 152.5t152.5 63.5q54 0 102 -26t78 -70l-30 -20q-25 37 -65 58.5t-85 21.5q-74 0 -127 -53t-53 -127t53 -127t127 -53 q45 0 85 21.5t65 58.5zM942 404l30 -20q-30 -44 -78 -70t-102 -26q-89 0 -152.5 63.5t-63.5 152.5t63.5 152.5t152.5 63.5q54 0 102 -26t78 -70l-30 -20q-25 37 -65 58.5t-85 21.5q-74 0 -127 -53t-53 -127t53 -127t127 -53q45 0 85 21.5t65 58.5z" />
<glyph unicode="&#xf089;" horiz-adv-x="1152" d="M243 792l216 -216l-27 -27l-207 207h-225v36h243zM891 468l234 -234l-234 -234l-27 27l189 189h-288l-216 216l27 27l207 -207h270l-189 189zM891 1008l234 -234l-234 -234l-27 27l189 189h-270l-540 -540h-243v36h225l540 540h288l-189 189z" />
<glyph unicode="&#xf08a;" horiz-adv-x="1152" d="M1026 36l84 111l-466 825h-136l-465 -825l83 -111h900zM666 1008l486 -864l-108 -144h-936l-108 144l486 864h180z" />
<glyph unicode="&#xf08b;" d="M36 36h936v936h-936v-936zM1008 1008v-1008h-1008v1008h1008z" />
<glyph unicode="&#xf08c;" d="M504 972q-95 0 -181.5 -37t-149.5 -100t-100 -149.5t-37 -181.5t37 -181.5t100 -149.5t149.5 -100t181.5 -37t181.5 37t149.5 100t100 149.5t37 181.5t-37 181.5t-100 149.5t-149.5 100t-181.5 37zM504 1008q208 0 356 -148t148 -356t-148 -356t-356 -148t-356 148 t-148 356t148 356t356 148z" />
<glyph unicode="&#xf08d;" horiz-adv-x="1152" d="M843 972h-534l-268 -468l268 -468h534l268 468zM864 1008l288 -504l-288 -504h-576l-288 504l288 504h576z" />
<glyph unicode="&#xf08e;" d="M698 972h-388l-274 -274v-388l274 -274h388l274 274v388zM713 1008l295 -295v-418l-295 -295h-418l-295 295v418l295 295h418z" />
<glyph unicode="&#xf090;" d="M504 747l504 -504l-27 -27l-477 477l-477 -477l-27 27z" />
<glyph unicode="&#xf091;" d="M504 261l-504 504l27 27l477 -477l477 477l27 -27z" />
<glyph unicode="&#xf092;" horiz-adv-x="576" d="M45 504l504 504l27 -27l-477 -477l477 -477l-27 -27z" />
<glyph unicode="&#xf093;" horiz-adv-x="576" d="M27 1008l504 -504l-504 -504l-27 27l477 477l-477 477z" />
<glyph unicode="&#xf094;" d="M504 576l504 -477l-27 -27l-477 450l-477 -450l-27 27zM504 936l504 -477l-27 -27l-477 450l-477 -450l-27 27z" />
<glyph unicode="&#xf095;" d="M1008 549l-504 -477l-504 477l27 27l477 -450l477 450zM1008 909l-504 -477l-504 477l27 27l477 -450l477 450z" />
<glyph unicode="&#xf096;" horiz-adv-x="864" d="M54 504l450 -477l-27 -27l-477 504l477 504l27 -27zM414 504l450 -477l-27 -27l-477 504l477 504l27 -27z" />
<glyph unicode="&#xf097;" horiz-adv-x="864" d="M27 1008l477 -504l-477 -504l-27 27l450 477l-450 477zM387 1008l477 -504l-477 -504l-27 27l450 477l-450 477z" />
<glyph unicode="&#xf098;" d="M0 459l504 504l504 -504l-27 -27l-459 459v-891h-36v891l-459 -459z" />
<glyph unicode="&#xf099;" d="M1008 549l-504 -504l-504 504l27 27l459 -459v891h36v-891l459 459z" />
<glyph unicode="&#xf09a;" d="M549 0l-504 504l504 504l27 -27l-459 -459h891v-36h-891l459 -459z" />
<glyph unicode="&#xf09b;" d="M459 1008l504 -504l-504 -504l-27 27l459 459h-891v36h891l-459 459z" />
<glyph unicode="&#xf09c;" d="M72 288v-288h-36v288h36zM288 792v-792h-36v792h36zM504 576v-576h-36v576h36zM720 432v-432h-36v432h36zM936 1008v-1008h-36v1008h36z" />
<glyph unicode="&#xf09d;" d="M826 396h-430v430q-152 -13 -256 -127t-104 -267q0 -164 116 -280t280 -116q153 0 267 104t127 256zM540 540h431q-13 172 -136 295t-295 136v-431zM432 432h432q0 -178 -127 -305t-305 -127t-305 127t-127 305t127 305t305 127v-432zM1008 504h-504v504q208 0 356 -148 t148 -356z" />
<glyph unicode="&#xf09e;" />
<glyph unicode="&#xf0a0;" d="M0 504q0 208 148 356t356 148t356 -148t148 -356t-148 -356t-356 -148t-356 148t-148 356zM972 504q0 95 -37 181.5t-100 149.5t-149.5 100t-181.5 37t-181.5 -37t-149.5 -100t-100 -149.5t-37 -181.5t37 -181.5t100 -149.5t149.5 -100t181.5 -37t181.5 37t149.5 100 t100 149.5t37 181.5zM504 799l-301 -300l26 -26l257 258v-515h36v515l239 -240l26 26z" />
<glyph unicode="&#xf0a1;" d="M1008 504q0 -208 -148 -356t-356 -148t-356 148t-148 356t148 356t356 148t356 -148t148 -356zM36 504q0 -95 37 -181.5t100 -149.5t149.5 -100t181.5 -37t181.5 37t149.5 100t100 149.5t37 181.5t-37 181.5t-100 149.5t-149.5 100t-181.5 37t-181.5 -37t-149.5 -100 t-100 -149.5t-37 -181.5zM504 209l301 300l-26 26l-257 -258v515h-36v-515l-239 240l-26 -26z" />
<glyph unicode="&#xf0a2;" d="M509 805l-300 -301l282 -283l26 26l-240 239h515v36h-515l258 257zM504 36q95 0 181.5 37t149.5 100t100 149.5t37 181.5t-37 181.5t-100 149.5t-149.5 100t-181.5 37t-181.5 -37t-149.5 -100t-100 -149.5t-37 -181.5t37 -181.5t100 -149.5t149.5 -100t181.5 -37z M504 1008q208 0 356 -148t148 -356t-148 -356t-356 -148t-356 148t-148 356t148 356t356 148z" />
<glyph unicode="&#xf0a3;" d="M504 1008q208 0 356 -148t148 -356t-148 -356t-356 -148t-356 148t-148 356t148 356t356 148zM504 36q95 0 181.5 37t149.5 100t100 149.5t37 181.5t-37 181.5t-100 149.5t-149.5 100t-181.5 37t-181.5 -37t-149.5 -100t-100 -149.5t-37 -181.5t37 -181.5t100 -149.5 t149.5 -100t181.5 -37zM799 504l-300 301l-26 -26l258 -257h-515v-36h515l-240 -239l26 -26z" />
<glyph unicode="&#xf0a4;" horiz-adv-x="864" d="M432 705l-388 -388l32 -65h712l32 65zM432 756l432 -432l-54 -108h-756l-54 108z" />
<glyph unicode="&#xf0a5;" horiz-adv-x="864" d="M432 231l388 388l-32 65h-712l-32 -65zM810 720l54 -108l-432 -432l-432 432l54 108h756z" />
<glyph unicode="&#xf0a6;" horiz-adv-x="576" d="M475 116l65 32v712l-65 32l-388 -388zM576 882v-756l-108 -54l-432 432l432 432z" />
<glyph unicode="&#xf0a7;" horiz-adv-x="576" d="M101 116l388 388l-388 388l-65 -32v-712zM108 936l432 -432l-432 -432l-108 54v756z" />
<glyph unicode="&#xf0a8;" horiz-adv-x="576" d="M54 747l234 234l234 -234l-27 -27l-189 189v-909h-36v909l-189 -189z" />
<glyph unicode="&#xf0a9;" horiz-adv-x="576" d="M288 0l-234 234l27 27l189 -189v909h36v-909l189 189l27 -27z" />
<glyph unicode="&#xf0aa;" d="M0 504l234 234l27 -27l-189 -189h909v-36h-909l189 -189l-27 -27z" />
<glyph unicode="&#xf0ab;" d="M747 738l234 -234l-234 -234l-27 27l189 189h-909v36h909l-189 189z" />
<glyph unicode="&#xf0ac;" horiz-adv-x="720" d="M684 270q0 97 -68.5 165.5t-165.5 68.5h-414v-468h414q97 0 165.5 68.5t68.5 165.5zM648 756q0 89 -63.5 152.5t-152.5 63.5h-396v-432h396q89 0 152.5 63.5t63.5 152.5zM720 270q0 -112 -79 -191t-191 -79h-450v1008h432q104 0 178 -74t74 -178q0 -83 -48.5 -145.5 t-125.5 -85.5q91 -20 150.5 -90t59.5 -165z" />
<glyph unicode="&#xf0ad;" horiz-adv-x="720" d="M549 972l-340 -936h125l-13 -36h-285l13 36h122l340 936h-125l13 36h285l-13 -36h-122z" />
<glyph unicode="&#xf0ae;" horiz-adv-x="720" d="M720 36v-36h-720v36h720zM720 1008v-504q0 -149 -105.5 -254.5t-254.5 -105.5t-254.5 105.5t-105.5 254.5v504h36v-504q0 -134 95 -229t229 -95t229 95t95 229v504h36z" />
<glyph unicode="&#xf0b0;" d="M471 706q102 -15 170 -94t68 -183q0 -114 -82 -198l-150 -149q-82 -82 -197 -82q-116 0 -198 82t-82 198q0 35 9.5 68.5t21 57t36 53.5t40 46t49 48t47.5 46l26 -26q-14 -14 -44 -42t-45.5 -43.5t-38.5 -43t-35 -49.5t-21 -52.5t-9 -62.5q0 -101 71.5 -172.5t172.5 -71.5 t172 71l150 150q71 71 71 172q0 90 -59.5 159.5t-148.5 82.5zM728 1008q116 0 198 -82t82 -198q0 -35 -9.5 -68.5t-21 -57t-36 -53.5t-40 -46t-49 -48t-47.5 -46l-26 26q14 14 44 42t45.5 43.5t38.5 43t35 49.5t21 52.5t9 62.5q0 101 -71.5 172.5t-172.5 71.5t-172 -71 l-150 -150q-71 -71 -71 -172q0 -90 59.5 -159.5t148.5 -82.5l-6 -35q-102 15 -170 94t-68 183q0 114 82 198l150 149q82 82 197 82z" />
<glyph unicode="&#xf0b1;" d="M926 531l-25 25q71 71 71 172.5t-71 172.5t-172.5 71t-172.5 -71l-449 -449q-71 -71 -71 -172.5t71 -172.5t172.5 -71t172.5 71l309 310q53 53 53 127t-53 126q-50 52 -126 52q-75 0 -127 -52l-216 -216q-33 -34 -33 -81t33 -81q34 -33 81 -33t81 33l194 195l26 -26 l-195 -194q-43 -44 -105.5 -44t-106.5 44t-44 106.5t44 105.5l216 216q61 63 152 63q89 0 152 -63t63 -152t-63 -152l-310 -309q-81 -82 -197 -82q-117 0 -198 82q-82 82 -82 197.5t82 197.5l449 449q82 82 197.5 82t197.5 -82t82 -197.5t-82 -197.5z" />
<glyph unicode="&#xf0b2;" d="M0 252h720v-36h-720v36zM0 684h720v-36h-720v36zM0 900h1008v-36h-1008v36zM0 468h1008v-36h-1008v36zM0 36h1008v-36h-1008v36z" />
<glyph unicode="&#xf0b3;" d="M216 252h576v-36h-576v36zM216 684h576v-36h-576v36zM0 900h1008v-36h-1008v36zM0 468h1008v-36h-1008v36zM0 36h1008v-36h-1008v36z" />
<glyph unicode="&#xf0b4;" d="M360 252h648v-36h-648v36zM360 684h648v-36h-648v36zM0 900h1008v-36h-1008v36zM0 468h1008v-36h-1008v36zM0 36h1008v-36h-1008v36z" />
<glyph unicode="&#xf0b5;" d="M0 252h1008v-36h-1008v36zM0 684h1008v-36h-1008v36zM0 900h1008v-36h-1008v36zM0 468h1008v-36h-1008v36zM0 36h1008v-36h-1008v36z" />
<glyph unicode="&#xf0b6;" d="M396 216q0 74 -53 127t-127 53t-127 -53t-53 -127t53 -127t127 -53t127 53t53 127zM396 792q0 74 -53 127t-127 53t-127 -53t-53 -127t53 -127t127 -53t127 53t53 127zM487 504l521 -493q-11 -11 -25.5 -11t-25.5 10l-496 469l-105 -99q76 -63 76 -164 q0 -89 -63.5 -152.5t-152.5 -63.5t-152.5 63.5t-63.5 152.5t63.5 152.5t152.5 63.5q60 0 110 -31l109 103l-109 103q-50 -31 -110 -31q-89 0 -152.5 63.5t-63.5 152.5t63.5 152.5t152.5 63.5t152.5 -63.5t63.5 -152.5q0 -101 -76 -164l105 -99l496 469q11 10 25.5 10 t25.5 -11z" />
<glyph unicode="&#xf0b7;" d="M216 1008h792v-792h-216v-216h-792v792h216v216zM756 36v180h-540v540h-180v-720h720zM972 252v720h-720v-720h720z" />
<glyph unicode="&#xf0b8;" horiz-adv-x="864" d="M432 720q-49 0 -88 30.5t-51 77.5h-257v-792h792v792h-256q-13 -47 -52 -77.5t-88 -30.5zM432 756q44 0 76 32t32 76t-32 76t-76 32t-76 -32t-32 -76t32 -76t76 -32zM432 1008q59 0 101.5 -42.5t42.5 -101.5h288v-864h-864v864h288q0 59 42.5 101.5t101.5 42.5z" />
<glyph unicode="&#xf0b9;" horiz-adv-x="1152" d="M1116 900h-1080v-792h1080v792zM1152 936v-864h-1152v864h1152zM900 756q-30 0 -51 -21t-21 -51t21 -51t51 -21t51 21t21 51t-21 51t-51 21zM900 792q44 0 76 -32t32 -76t-32 -76t-76 -32t-76 32t-32 76t32 76t76 32zM396 669l-216 -216v-201h792v57l-144 144l-108 -108z M396 720l324 -324l108 108l180 -180v-108h-864v252z" />
<glyph unicode="&#xf0ba;" horiz-adv-x="1152" d="M36 108h522v324h-522v-324zM36 468h522v324h-522v-324zM594 108h522v324h-522v-324zM36 828h1080v72h-1080v-72zM594 468h522v324h-522v-324zM1152 936v-864h-1152v864h1152z" />
<glyph unicode="&#xf0bb;" horiz-adv-x="1152" d="M1152 432v36h-864v-36h864zM1152 792v36h-864v-36h864zM1152 72v36h-864v-36h864zM108 900q-30 0 -51 -21t-21 -51t21 -51t51 -21t51 21t21 51t-21 51t-51 21zM108 936q44 0 76 -32t32 -76t-32 -76t-76 -32t-76 32t-32 76t32 76t76 32zM108 540q-30 0 -51 -21t-21 -51 t21 -51t51 -21t51 21t21 51t-21 51t-51 21zM108 576q44 0 76 -32t32 -76t-32 -76t-76 -32t-76 32t-32 76t32 76t76 32zM108 180q-30 0 -51 -21t-21 -51t21 -51t51 -21t51 21t21 51t-21 51t-51 21zM108 216q44 0 76 -32t32 -76t-32 -76t-76 -32t-76 32t-32 76t32 76t76 32z " />
<glyph unicode="&#xf0bc;" horiz-adv-x="1141" d="M133 1008v-288h-36v232l-40 -47l-28 23l69 80h35zM205 396v-36h-198v37l9 5q52 32 99 78t47 78q0 26 -17.5 40t-40.5 14q-36 0 -62 -39l-2 -3l-30 20l2 3q37 55 92 55q38 0 66 -24t28 -66q0 -69 -127 -162h134zM99 0q-33 0 -60 14t-39 38l32 16q17 -32 67 -32q70 0 70 45 q0 18 -21 31.5t-49 13.5h-20v36h20q28 0 49 13.5t21 31.5q0 23 -21 34t-49 11q-50 0 -67 -32l-32 16q12 24 39 38t60 14q48 0 77 -22.5t29 -58.5q0 -19 -17 -38.5t-37 -24.5q20 -4 37 -23.5t17 -39.5q0 -37 -28.5 -59t-77.5 -22zM277 144v-36h864v36h-864zM1141 864h-864 v-36h864v36zM277 504v-36h864v36h-864z" />
<glyph unicode="&#xf0bd;" d="M44 257l193 193l-193 193l-8 -3v-380zM1008 36v-36h-1008v36h1008zM54 684l234 -234l-234 -234l-54 18v432zM1008 252v-36h-576v36h576zM1008 468v-36h-576v36h576zM1008 684v-36h-576v36h576zM1008 900v-36h-1008v36h1008z" />
<glyph unicode="&#xf0be;" d="M244 257l8 3v380l-8 3l-193 -193zM1008 36v-36h-1008v36h1008zM288 666v-432l-54 -18l-234 234l234 234zM1008 252v-36h-576v36h576zM1008 468v-36h-576v36h576zM1008 684v-36h-576v36h576zM1008 900v-36h-1008v36h1008z" />
<glyph unicode="&#xf0c0;" d="M504 1008q208 0 356 -148t148 -356t-148 -356t-356 -148q-135 0 -252.5 68.5t-184.5 185.5l31 18q62 -109 171 -172.5t235 -63.5q95 0 181.5 37t149.5 100t100 149.5t37 181.5t-37 181.5t-100 149.5t-149.5 100t-181.5 37q-147 0 -267.5 -84.5t-171.5 -221.5h295v-36 h-360v378h36v-317q57 143 185.5 230t282.5 87z" />
<glyph unicode="&#xf0c1;" d="M504 1008q154 0 282.5 -87t185.5 -230v317h36v-378h-360v36h295q-51 137 -171.5 221.5t-267.5 84.5q-95 0 -181.5 -37t-149.5 -100t-100 -149.5t-37 -181.5t37 -181.5t100 -149.5t149.5 -100t181.5 -37q126 0 235 63.5t171 172.5l31 -18q-67 -117 -184.5 -185.5 t-252.5 -68.5q-208 0 -356 148t-148 356t148 356t356 148z" />
<glyph unicode="&#xf0c2;" d="M1008 540v-36h-317v51q36 24 77.5 57.5t90.5 78t81 90.5t32 80q0 52 -37 81.5t-89 29.5q-87 0 -147 -86l-30 21q72 101 177 101q67 0 114.5 -40.5t47.5 -106.5q0 -39 -29.5 -86.5t-77.5 -93.5t-87.5 -79t-80.5 -62h275zM346 324l236 324h-45l-213 -293l-213 293h-45 l236 -324l-236 -324h45l213 293l213 -293h45z" />
<glyph unicode="&#xf0c3;" d="M582 1008l-236 -324l236 -324h-45l-213 293l-213 -293h-45l236 324l-236 324h45l213 -293l213 293h45zM1008 0v36h-275q41 29 80.5 62t87.5 79t77.5 93.5t29.5 86.5q0 66 -47.5 106.5t-114.5 40.5q-105 0 -177 -101l30 -21q60 86 147 86q52 0 89 -29.5t37 -81.5 q0 -34 -32 -80t-81 -90.5t-90.5 -78t-77.5 -57.5v-51h317z" />
<glyph unicode="&#xf0c4;" horiz-adv-x="1152" d="M252 72h-36v468h-216v36h468v-36h-216v-468zM792 72h-36v828h-360v36h756v-36h-360v-828z" />
<glyph unicode="&#xf0c5;" d="M1008 0v36h-1008v-36h1008zM166 216h-39l356 792h42l356 -792h-39l-98 216h-480zM504 966l-224 -498h448z" />
<glyph unicode="&#xf0c6;" d="M1008 405l-189 -189l189 -189l-27 -27l-189 189l-189 -189l-27 27l189 189l-189 189l27 27l189 -189l189 189zM13 216h558l-13 -36h-558zM877 1008l-13 -36h-305l-249 -684h-38l249 684h-305l13 36h648z" />
<glyph unicode="&#xf0c7;" d="M972 504q0 134 -71 247.5t-191 172.5q10 -23 10 -51q0 -52 -37 -89q-35 -36 -71 -71v-65q0 -30 -21 -51t-51 -21t-51 21t-21 51v36q-30 0 -51 -21t-21 -51t21 -51t51 -21h72q30 0 65 -7t70 -20.5t58 -39.5t23 -59q0 -62 -7 -78l-105 -229q-14 -32 -49 -32 q-23 0 -38.5 15.5t-15.5 38.5v132q-73 51 -73 99v36h-24q-110 0 -187 77t-77 187v24q0 131 93 227q-110 -63 -173.5 -172t-63.5 -235q0 -95 37 -181.5t100 -149.5t149.5 -100t181.5 -37t181.5 37t149.5 100t100 149.5t37 181.5zM720 379v35q0 31 -36 53t-74.5 29.5 t-69.5 7.5h-72q-44 0 -76 32t-32 76t32 76t76 32h36v-72q0 -15 10.5 -25.5t25.5 -10.5t25.5 10.5t10.5 25.5v79l82 82q26 28 26 64q0 48 -36 76q-71 23 -144 23q-119 0 -203.5 -84.5t-84.5 -203.5v-24q0 -94 67 -161t161 -67h60v-72q0 -19 24.5 -42t48.5 -38v-151 q0 -7 5.5 -12.5t12.5 -5.5q11 0 16 11l104 228q5 12 5 29zM1008 504q0 -208 -148 -356t-356 -148t-356 148t-148 356t148 356t356 148q136 0 252 -67.5t184 -183.5t68 -253z" />
<glyph unicode="&#xf0c8;" horiz-adv-x="1152" d="M288 324q0 -15 -10.5 -25.5t-25.5 -10.5t-25.5 10.5t-10.5 25.5t10.5 25.5t25.5 10.5t25.5 -10.5t10.5 -25.5zM360 540q0 -15 -10.5 -25.5t-25.5 -10.5t-25.5 10.5t-10.5 25.5t10.5 25.5t25.5 10.5t25.5 -10.5t10.5 -25.5zM576 612q0 -15 -10.5 -25.5t-25.5 -10.5 t-25.5 10.5t-10.5 25.5t10.5 25.5t25.5 10.5t25.5 -10.5t10.5 -25.5zM853 612l96 -95l-26 -26l-95 96l-95 -96l-26 26l96 95l-96 95l26 26l95 -96l95 96l26 -26zM754 182l362 -115v788l-376 115l-343 -145l-361 132v-787l377 -131zM1152 882v-864l-396 126l-342 -144 l-414 144v864l396 -144l342 144z" />
<glyph unicode="&#xf0c9;" d="M929 964l-893 -446v-50h432v-432h50l446 893zM936 1008l72 -72l-468 -936h-108v432h-432v108z" />
<glyph unicode="&#xf0ca;" horiz-adv-x="720" d="M468 648q0 45 -31.5 76.5t-76.5 31.5t-76.5 -31.5t-31.5 -76.5t31.5 -76.5t76.5 -31.5t76.5 31.5t31.5 76.5zM504 648q0 -60 -42 -102t-102 -42t-102 42t-42 102t42 102t102 42t102 -42t42 -102zM684 648q0 134 -95 229t-229 95t-229 -95t-95 -229q0 -82 35 -145 l256 -467h66l256 467q35 63 35 145zM720 648q0 -90 -39 -162l-267 -486h-108l-267 486q-39 72 -39 162q0 149 105.5 254.5t254.5 105.5t254.5 -105.5t105.5 -254.5z" />
<glyph unicode="&#xf0cb;" horiz-adv-x="576" d="M576 720q0 -114 -78 -197t-192 -90v-433h-36v433q-114 7 -192 90t-78 197q0 119 84.5 203.5t203.5 84.5t203.5 -84.5t84.5 -203.5zM288 468q104 0 178 74t74 178t-74 178t-178 74t-178 -74t-74 -178t74 -178t178 -74zM216 864q30 0 51 -21t21 -51t-21 -51t-51 -21t-51 21 t-21 51t21 51t51 21zM216 756q15 0 25.5 10.5t10.5 25.5t-10.5 25.5t-25.5 10.5t-25.5 -10.5t-10.5 -25.5t10.5 -25.5t25.5 -10.5z" />
<glyph unicode="&#xf0cc;" horiz-adv-x="1152" d="M468 36h216v288h-216v-288zM720 36h216v657l-360 269l-360 -269v-657h216v324h288v-324zM972 711l180 -135l-22 -29l-158 119v-666h-792v666l-158 -119l-22 29l576 432l360 -270v198h36v-225z" />
<glyph unicode="&#xf0cd;" horiz-adv-x="864" d="M0 1008h864v-1008h-864v1008zM360 36h144v180h-144v-180zM828 36v936h-792v-936h288v216h216v-216h288zM360 864v-216h-216v216h216zM324 684v144h-144v-144h144zM720 864v-216h-216v216h216zM684 684v144h-144v-144h144zM360 576v-216h-216v216h216zM324 396v144h-144 v-144h144zM720 576v-216h-216v216h216zM684 396v144h-144v-144h144z" />
<glyph unicode="&#xf0ce;" d="M252 972h-216v-936h936v620l-360 -216v216l-360 -216v532zM288 1008v-504l360 216v-216l360 216v-720h-1008v1008h288z" />
<glyph unicode="&#xf0d0;" horiz-adv-x="1152" d="M1152 216h-447l30 -180h57v-36h-432v36h57l30 180h-447v792h1152v-792zM36 972v-576h1080v576h-1080zM36 360v-108h1080v108h-1080zM699 36l-30 180h-186l-30 -180h246z" />
<glyph unicode="&#xf0d1;" horiz-adv-x="1152" d="M1008 936v-720h-864v720h864zM972 252v648h-792v-648h792zM0 108h1152v-36h-1152v36z" />
<glyph unicode="&#xf0d2;" horiz-adv-x="864" d="M0 1008h864v-1008h-864v1008zM36 972v-756h792v756h-792zM828 36v144h-792v-144h792zM432 72q-15 0 -25.5 10.5t-10.5 25.5t10.5 25.5t25.5 10.5t25.5 -10.5t10.5 -25.5t-10.5 -25.5t-25.5 -10.5z" />
<glyph unicode="&#xf0d3;" horiz-adv-x="576" d="M0 1008h576v-1008h-576v1008zM36 792v-576h504v576h-504zM540 36v144h-504v-144h504zM36 828h504v144h-504v-144zM288 72q-15 0 -25.5 10.5t-10.5 25.5t10.5 25.5t25.5 10.5t25.5 -10.5t10.5 -25.5t-10.5 -25.5t-25.5 -10.5z" />
<glyph unicode="&#xf0d4;" horiz-adv-x="1152" d="M1152 216h-558v-108h270v-36h-576v36h270v108h-558v720h1152v-720zM36 252h1080v648h-1080v-648z" />
<glyph unicode="&#xf0d5;" d="M504 972q-95 0 -181.5 -37t-149.5 -100t-100 -149.5t-37 -181.5t37 -181.5t100 -149.5t149.5 -100t181.5 -37t181.5 37t149.5 100t100 149.5t37 181.5t-37 181.5t-100 149.5t-149.5 100t-181.5 37zM504 1008q208 0 356 -148t148 -356t-148 -356t-356 -148t-356 148 t-148 356t148 356t356 148zM504 648q-59 0 -101.5 -42.5t-42.5 -101.5t42.5 -101.5t101.5 -42.5t101.5 42.5t42.5 101.5t-42.5 101.5t-101.5 42.5zM504 684q74 0 127 -53t53 -127t-53 -127t-127 -53t-127 53t-53 127t53 127t127 53z" />
<glyph unicode="&#xf0d6;" d="M942 36l24 119l-354 106v81q100 39 158 119.5t58 186.5q0 134 -95 229t-229 95t-229 -95t-95 -229q0 -106 58 -186.5t158 -119.5v-81l-354 -106l24 -119h876zM648 288l360 -108l-36 -180h-936l-36 180l360 108v30q-98 43 -157 133t-59 197q0 149 105.5 254.5t254.5 105.5 t254.5 -105.5t105.5 -254.5q0 -107 -59 -197t-157 -133v-30z" />
<glyph unicode="&#xf0d7;" d="M943 36l23 101l-354 106v102q202 19 280 64q-41 18 -66.5 56t-25.5 83q0 17 5 50t5 50q0 130 -88.5 227t-217.5 97t-217.5 -97t-88.5 -227q0 -17 5 -50t5 -50q0 -45 -25.5 -83t-66.5 -56q78 -45 280 -64v-102l-354 -106l23 -101h878zM648 270l360 -108l-36 -162h-936 l-36 162l360 108v43q-32 3 -73 9.5t-99 20t-96 37t-38 52.5q48 0 83 34t35 82q0 16 -5 49.5t-5 50.5q0 146 98.5 253t243.5 107t243.5 -107t98.5 -253q0 -17 -5 -50.5t-5 -49.5q0 -48 35 -82t83 -34q0 -29 -38 -52.5t-96 -37t-99 -20t-73 -9.5v-43z" />
<glyph unicode="&#xf0d8;" horiz-adv-x="1152" d="M1008 936q59 0 101.5 -42.5t42.5 -101.5q0 -49 -30.5 -88t-77.5 -51v-581h-936v581q-47 12 -77.5 51t-30.5 88q0 59 42.5 101.5t101.5 42.5t101.5 -42.5t42.5 -101.5q0 -48 -29.5 -87t-75.5 -52l177 -295l177 295q-46 13 -75.5 52t-29.5 87q0 59 42.5 101.5t101.5 42.5 t101.5 -42.5t42.5 -101.5q0 -48 -29.5 -87t-75.5 -52l177 -295l177 295q-46 13 -75.5 52t-29.5 87q0 59 42.5 101.5t101.5 42.5zM468 792q0 -44 32 -76t76 -32t76 32t32 76t-32 76t-76 32t-76 -32t-32 -76zM36 792q0 -44 32 -76t76 -32t76 32t32 76t-32 76t-76 32t-76 -32 t-32 -76zM1008 108v540l-216 -360l-216 360l-216 -360l-216 360v-540h864zM1008 684q44 0 76 32t32 76t-32 76t-76 32t-76 -32t-32 -76t32 -76t76 -32z" />
<glyph unicode="&#xf0d9;" horiz-adv-x="1152" d="M0 936h1152v-864h-1152v864zM1116 108v468h-1080v-468h1080zM1116 612v72h-1080v-72h1080zM1116 720v180h-1080v-180h1080zM648 252v-36h-288v36h288zM288 252v-36h-144v36h144z" />
<glyph unicode="&#xf0da;" horiz-adv-x="1152" d="M558 432v-432h-36v432h36zM1080 540v-36h-1080v36h1080zM1008 1008v-36h-450v-360h-36v360h-450v36h936z" />
<glyph unicode="&#xf0db;" d="M49 324h910l-455 487zM1008 108v-36h-1008v36h1008zM504 864l504 -540l-18 -36h-972l-18 36z" />
<glyph unicode="&#xf0dc;" horiz-adv-x="1152" d="M180 612q-59 0 -101.5 -42.5t-42.5 -101.5t42.5 -101.5t101.5 -42.5t101.5 42.5t42.5 101.5t-42.5 101.5t-101.5 42.5zM180 648q74 0 127 -53t53 -127t-53 -127t-127 -53t-127 53t-53 127t53 127t127 53zM576 612q-59 0 -101.5 -42.5t-42.5 -101.5t42.5 -101.5 t101.5 -42.5t101.5 42.5t42.5 101.5t-42.5 101.5t-101.5 42.5zM576 648q74 0 127 -53t53 -127t-53 -127t-127 -53t-127 53t-53 127t53 127t127 53zM972 612q-59 0 -101.5 -42.5t-42.5 -101.5t42.5 -101.5t101.5 -42.5t101.5 42.5t42.5 101.5t-42.5 101.5t-101.5 42.5z M972 648q74 0 127 -53t53 -127t-53 -127t-127 -53t-127 53t-53 127t53 127t127 53z" />
<glyph unicode="&#xf0dd;" horiz-adv-x="432" d="M216 972q-52 0 -89 -37t-37 -89t37 -89t89 -37t89 37t37 89t-37 89t-89 37zM216 1008q67 0 114.5 -47.5t47.5 -114.5t-47.5 -114.5t-114.5 -47.5t-114.5 47.5t-47.5 114.5t47.5 114.5t114.5 47.5zM216 630q-52 0 -89 -37t-37 -89t37 -89t89 -37t89 37t37 89t-37 89 t-89 37zM216 666q67 0 114.5 -47.5t47.5 -114.5t-47.5 -114.5t-114.5 -47.5t-114.5 47.5t-47.5 114.5t47.5 114.5t114.5 47.5zM216 288q-52 0 -89 -37t-37 -89t37 -89t89 -37t89 37t37 89t-37 89t-89 37zM216 324q67 0 114.5 -47.5t47.5 -114.5t-47.5 -114.5t-114.5 -47.5 t-114.5 47.5t-47.5 114.5t47.5 114.5t114.5 47.5z" />
<glyph unicode="&#xf0de;" />
<glyph unicode="&#xf0e0;" />
<glyph unicode="&#xf0e1;" />
<glyph unicode="&#xf0e2;" />
<glyph unicode="&#xf0e3;" />
<glyph unicode="&#xf0e4;" />
<glyph unicode="&#xf0e5;" />
<glyph unicode="&#xf0e6;" />
<glyph unicode="&#xf0e7;" />
<glyph unicode="&#xf0e8;" />
<glyph unicode="&#xf0e9;" />
<glyph unicode="&#xf0ea;" />
<glyph unicode="&#xf0eb;" />
<glyph unicode="&#xf0ec;" />
<glyph unicode="&#xf0ed;" />
<glyph unicode="&#xf0ee;" />
<glyph unicode="&#xf0f0;" />
<glyph unicode="&#xf0f1;" />
<glyph unicode="&#xf0f2;" />
<glyph unicode="&#xf0f3;" />
<glyph unicode="&#xf0f4;" />
<glyph unicode="&#xf0f5;" />
<glyph unicode="&#xf0f6;" />
<glyph unicode="&#xf0f7;" />
<glyph unicode="&#xf0f8;" />
<glyph unicode="&#xf0f9;" />
<glyph unicode="&#xf0fa;" />
<glyph unicode="&#xf0fb;" />
<glyph unicode="&#xf0fc;" />
<glyph unicode="&#xf0fd;" />
<glyph unicode="&#xf0fe;" />
<glyph unicode="&#xf100;" />
<glyph unicode="&#xf101;" />
<glyph unicode="&#xf102;" />
<glyph unicode="&#xf103;" />
<glyph unicode="&#xf104;" />
<glyph unicode="&#xf105;" />
<glyph unicode="&#xf106;" />
<glyph unicode="&#xf107;" />
<glyph unicode="&#xf108;" />
<glyph unicode="&#xf109;" />
<glyph unicode="&#xf10a;" />
<glyph unicode="&#xf10b;" />
<glyph unicode="&#xf10c;" />
<glyph unicode="&#xf10d;" />
<glyph unicode="&#xf10e;" />
<glyph unicode="&#xf110;" />
<glyph unicode="&#xf111;" />
<glyph unicode="&#xf112;" />
<glyph unicode="&#xf113;" />
<glyph unicode="&#xf114;" />
<glyph unicode="&#xf115;" />
<glyph unicode="&#xf116;" />
<glyph unicode="&#xf117;" />
<glyph unicode="&#xf118;" />
<glyph unicode="&#xf119;" />
<glyph unicode="&#xf11a;" />
<glyph unicode="&#xf11b;" />
<glyph unicode="&#xf11c;" />
<glyph unicode="&#xf11d;" />
<glyph unicode="&#xf11e;" />
<glyph unicode="&#xf120;" />
<glyph unicode="&#xf121;" />
<glyph unicode="&#xf122;" />
<glyph unicode="&#xf123;" />
<glyph unicode="&#xf124;" />
<glyph unicode="&#xf125;" />
<glyph unicode="&#xf126;" />
<glyph unicode="&#xf127;" />
<glyph unicode="&#xf128;" />
<glyph unicode="&#xf129;" />
<glyph unicode="&#xf12a;" />
<glyph unicode="&#xf12b;" />
<glyph unicode="&#xf12c;" />
<glyph unicode="&#xf12d;" />
<glyph unicode="&#xf12e;" />
<glyph unicode="&#xf130;" />
<glyph unicode="&#xf131;" />
<glyph unicode="&#xf132;" />
<glyph unicode="&#xf133;" />
<glyph unicode="&#xf134;" />
<glyph unicode="&#xf135;" />
<glyph unicode="&#xf136;" />
<glyph unicode="&#xf137;" />
<glyph unicode="&#xf138;" />
<glyph unicode="&#xf139;" />
<glyph unicode="&#xf13a;" />
<glyph unicode="&#xf13b;" />
<glyph unicode="&#xf13c;" />
<glyph unicode="&#xf13d;" />
<glyph unicode="&#xf13e;" />
<glyph unicode="&#xf140;" />
<glyph unicode="&#xf141;" />
<glyph unicode="&#xf142;" />
<glyph unicode="&#xf143;" />
<glyph unicode="&#xf144;" />
<glyph unicode="&#xf145;" />
<glyph unicode="&#xf146;" />
<glyph unicode="&#xf147;" />
<glyph unicode="&#xf148;" />
<glyph unicode="&#xf149;" />
<glyph unicode="&#xf14a;" />
<glyph unicode="&#xf14b;" />
<glyph unicode="&#xf14c;" />
<glyph unicode="&#xf14d;" />
<glyph unicode="&#xf14e;" />
<glyph unicode="&#xf150;" />
<glyph unicode="&#xf151;" />
<glyph unicode="&#xf152;" />
<glyph unicode="&#xf153;" />
<glyph unicode="&#xf154;" />
<glyph unicode="&#xf155;" />
<glyph unicode="&#xf156;" />
<glyph unicode="&#xf157;" />
<glyph unicode="&#xf158;" />
<glyph unicode="&#xf159;" />
<glyph unicode="&#xf15a;" />
<glyph unicode="&#xf15b;" />
<glyph unicode="&#xf15c;" />
<glyph unicode="&#xf15d;" />
<glyph unicode="&#xf15e;" />
<glyph unicode="&#xf160;" />
<glyph unicode="&#xf161;" />
<glyph unicode="&#xf162;" />
<glyph unicode="&#xf163;" />
<glyph unicode="&#xf164;" />
<glyph unicode="&#xf165;" />
<glyph unicode="&#xf166;" />
<glyph unicode="&#xf167;" />
<glyph unicode="&#xf168;" />
<glyph unicode="&#xf169;" />
<glyph unicode="&#xf16a;" />
<glyph unicode="&#xf16b;" />
<glyph unicode="&#xf16c;" />
<glyph unicode="&#xf16d;" />
<glyph unicode="&#xf16e;" />
<glyph unicode="&#xf170;" />
<glyph unicode="&#xf171;" />
<glyph unicode="&#xf172;" />
<glyph unicode="&#xf173;" />
<glyph unicode="&#xf174;" />
<glyph unicode="&#xf175;" />
<glyph unicode="&#xf176;" />
<glyph unicode="&#xf177;" />
<glyph unicode="&#xf178;" />
<glyph unicode="&#xf179;" />
<glyph unicode="&#xf17a;" />
<glyph unicode="&#xf17b;" />
<glyph unicode="&#xf17c;" />
<glyph unicode="&#xf17d;" />
<glyph unicode="&#xf17e;" />
<glyph unicode="&#xf180;" />
<glyph unicode="&#xf181;" />
<glyph unicode="&#xf182;" />
<glyph unicode="&#xf183;" />
<glyph unicode="&#xf184;" />
<glyph unicode="&#xf185;" />
<glyph unicode="&#xf186;" />
<glyph unicode="&#xf187;" />
<glyph unicode="&#xf188;" />
<glyph unicode="&#xf189;" />
<glyph unicode="&#xf18a;" />
<glyph unicode="&#xf18b;" />
<glyph unicode="&#xf18c;" />
<glyph unicode="&#xf18d;" />
<glyph unicode="&#xf18e;" />
<glyph unicode="&#xf190;" />
<glyph unicode="&#xf191;" />
<glyph unicode="&#xf192;" />
<glyph unicode="&#xf193;" />
<glyph unicode="&#xf194;" />
<glyph unicode="&#xf195;" />
<glyph unicode="&#xf196;" />
<glyph unicode="&#xf197;" />
<glyph unicode="&#xf198;" />
<glyph unicode="&#xf199;" />
<glyph unicode="&#xf19a;" />
<glyph unicode="&#xf19b;" />
<glyph unicode="&#xf19c;" />
<glyph unicode="&#xf19d;" />
<glyph unicode="&#xf19e;" />
</font>
</defs>
</svg>
